<?xml version="1.0" encoding="UTF-8" standalone="no"?>
<svg
   xmlns:dc="http://purl.org/dc/elements/1.1/"
   xmlns:cc="http://creativecommons.org/ns#"
   xmlns:rdf="http://www.w3.org/1999/02/22-rdf-syntax-ns#"
   xmlns:svg="http://www.w3.org/2000/svg"
   xmlns="http://www.w3.org/2000/svg"
   version="1.1"
   id="svg2"
   viewBox="0 0 391.83559 260.13787"
   height="73.416687mm"
   width="110.58471mm">
  <defs
     id="defs4" />
  <metadata
     id="metadata7">
    <rdf:RDF>
      <cc:Work
         rdf:about="">
        <dc:format>image/svg+xml</dc:format>
        <dc:type
           rdf:resource="http://purl.org/dc/dcmitype/StillImage" />
        <dc:title></dc:title>
      </cc:Work>
    </rdf:RDF>
  </metadata>
  <g
     transform="translate(-62.721697,-126.66876)"
     id="layer1">
    <rect
       y="144.51219"
       x="138.15776"
       height="54.974834"
       width="13.059464"
       id="rect4200-3-2"
       style="fill:#97da7d;fill-opacity:1;stroke:none;stroke-width:1.5;stroke-miterlimit:4;stroke-dasharray:6, 1.5;stroke-dashoffset:0;stroke-opacity:1" />
    <rect
       y="189.81801"
       x="151.37312"
       height="9.4500237"
       width="128.99696"
       id="rect4200"
       style="fill:#fbe200;fill-opacity:1;stroke:none;stroke-width:1.5;stroke-miterlimit:4;stroke-dasharray:6, 1.5;stroke-dashoffset:0;stroke-opacity:1" />
    <rect
       y="248.24019"
       x="151.56857"
       height="9.4500237"
       width="128.99696"
       id="rect4200-5-5"
       style="fill:#2991ff;fill-opacity:1;stroke:none;stroke-width:1.5;stroke-miterlimit:4;stroke-dasharray:6, 1.5;stroke-dashoffset:0;stroke-opacity:1" />
    <rect
       y="257.54694"
       x="151.45532"
       height="9.4500237"
       width="128.99696"
       id="rect4200-5"
       style="fill:#fbe200;fill-opacity:1;stroke:none;stroke-width:1.5;stroke-miterlimit:4;stroke-dasharray:6, 1.5;stroke-dashoffset:0;stroke-opacity:1" />
    <rect
       y="199.27606"
       x="151.40004"
       height="9.4500237"
       width="128.99696"
       id="rect4200-3"
       style="fill:#97da7d;fill-opacity:1;stroke:none;stroke-width:1.5;stroke-miterlimit:4;stroke-dasharray:6, 1.5;stroke-dashoffset:0;stroke-opacity:1" />
    <rect
       y="315.86142"
       x="151.58493"
       height="9.4500237"
       width="128.99696"
       id="rect4200-5-5-6"
       style="fill:#2991ff;fill-opacity:1;stroke:none;stroke-width:1.5;stroke-miterlimit:4;stroke-dasharray:6, 1.5;stroke-dashoffset:0;stroke-opacity:1" />
    <rect
       y="306.37555"
       x="151.60612"
       height="9.4500237"
       width="128.99696"
       id="rect4200-5-5-6-2"
       style="fill:#ff855a;fill-opacity:1;stroke:none;stroke-width:1.5;stroke-miterlimit:4;stroke-dasharray:6, 1.5;stroke-dashoffset:0;stroke-opacity:1" />
    <rect
       y="144.89011"
       x="151.66302"
       height="9.4500237"
       width="128.99696"
       id="rect4200-9"
       style="fill:#afafaf;fill-opacity:1;stroke:none;stroke-width:1.5;stroke-miterlimit:4;stroke-dasharray:6, 1.5;stroke-dashoffset:0;stroke-opacity:1" />
    <rect
       y="359.01151"
       x="151.54904"
       height="9.4500237"
       width="128.99696"
       id="rect4200-9-1"
       style="fill:#afafaf;fill-opacity:1;stroke:none;stroke-width:1.5;stroke-miterlimit:4;stroke-dasharray:6, 1.5;stroke-dashoffset:0;stroke-opacity:1" />
    <rect
       y="315.78195"
       x="138.15776"
       height="53.026169"
       width="13.059464"
       id="rect4200-3-2-7-9"
       style="fill:#ff855a;fill-opacity:1;stroke:none;stroke-width:1.5;stroke-miterlimit:4;stroke-dasharray:6, 1.5;stroke-dashoffset:0;stroke-opacity:1" />
    <rect
       y="257.57687"
       x="138.15776"
       height="58.274227"
       width="13.059464"
       id="rect4200-3-2-7-0"
       style="fill:#2991ff;fill-opacity:1;stroke:none;stroke-width:1.5;stroke-miterlimit:4;stroke-dasharray:6, 1.5;stroke-dashoffset:0;stroke-opacity:1" />
    <rect
       y="199.39223"
       x="138.15776"
       height="58.218983"
       width="13.059464"
       id="rect4200-3-2-7"
       style="fill:#fbe200;fill-opacity:1;stroke:none;stroke-width:1.5;stroke-miterlimit:4;stroke-dasharray:6, 1.5;stroke-dashoffset:0;stroke-opacity:1" />
    <rect
       y="144.8853"
       x="151.3976"
       height="223.7048"
       width="129.2431"
       id="rect4136"
       style="fill:none;fill-opacity:1;stroke:#000000;stroke-width:1;stroke-miterlimit:0.69999999;stroke-dasharray:none;stroke-opacity:1" />
    <path
       id="path4159"
       d="m 151.28612,199.37872 c 129.46605,0 129.46605,0 129.46605,0"
       style="fill:#f11e00;fill-opacity:1;fill-rule:evenodd;stroke:#f41616;stroke-width:2;stroke-linecap:butt;stroke-linejoin:miter;stroke-miterlimit:4;stroke-dasharray:8, 2;stroke-dashoffset:0;stroke-opacity:1" />
    <path
       id="path4159-6"
       d="m 151.28612,257.62342 c 129.46605,0 129.46605,0 129.46605,0"
       style="fill:#f11e00;fill-opacity:1;fill-rule:evenodd;stroke:#f41616;stroke-width:2;stroke-linecap:butt;stroke-linejoin:miter;stroke-miterlimit:4;stroke-dasharray:8, 2;stroke-dashoffset:0;stroke-opacity:1" />
    <path
       id="path4159-7"
       d="m 151.28612,315.86808 c 129.46605,0 129.46605,0 129.46605,0"
       style="fill:#f11e00;fill-opacity:1;fill-rule:evenodd;stroke:#f41616;stroke-width:2;stroke-linecap:butt;stroke-linejoin:miter;stroke-miterlimit:4;stroke-dasharray:8, 2;stroke-dashoffset:0;stroke-opacity:1" />
    <g
       id="text4377"
       style="font-style:normal;font-weight:normal;font-size:12.5px;line-height:125%;font-family:sans-serif;letter-spacing:0px;word-spacing:0px;fill:#000000;fill-opacity:1;stroke:none;stroke-width:1px;stroke-linecap:butt;stroke-linejoin:miter;stroke-opacity:1">
      <path
         id="path5391"
         style=""
         d="m 84.759521,168.71474 q 0.396729,0.13427 0.769043,0.57373 0.378418,0.43945 0.756836,1.20849 l 1.251221,2.49024 -1.324463,0 -1.165771,-2.33765 q -0.45166,-0.91553 -0.878907,-1.2146 -0.421142,-0.29907 -1.153564,-0.29907 l -1.342773,0 0,3.85132 -1.232911,0 0,-9.11255 2.783204,0 q 1.5625,0 2.331543,0.65308 0.769042,0.65307 0.769042,1.97143 0,0.8606 -0.402832,1.42822 -0.396728,0.56763 -1.159668,0.78736 z m -3.088378,-3.82691 0,3.23487 1.550293,0 q 0.891113,0 1.342773,-0.40894 0.457764,-0.41504 0.457764,-1.2146 0,-0.79956 -0.457764,-1.20239 -0.45166,-0.40894 -1.342773,-0.40894 l -1.550293,0 z" />
      <path
         id="path5393"
         style=""
         d="m 91.918945,169.55092 q -1.361084,0 -1.885986,0.31128 -0.524902,0.31128 -0.524902,1.06201 0,0.59814 0.390625,0.95215 0.396728,0.3479 1.074218,0.3479 0.933838,0 1.495362,-0.65918 0.567627,-0.66528 0.567627,-1.76392 l 0,-0.25024 -1.116944,0 z m 2.239991,-0.46387 0,3.90015 -1.123047,0 0,-1.0376 q -0.384522,0.62256 -0.958252,0.92163 -0.573731,0.29297 -1.403809,0.29297 -1.049805,0 -1.672363,-0.58594 -0.616455,-0.59204 -0.616455,-1.58081 0,-1.15356 0.769043,-1.7395 0.775146,-0.58594 2.307129,-0.58594 l 1.574707,0 0,-0.10986 q 0,-0.77515 -0.512696,-1.19629 -0.506591,-0.42725 -1.428222,-0.42725 -0.585938,0 -1.141358,0.14038 -0.55542,0.14039 -1.068115,0.42115 l 0,-1.0376 q 0.616455,-0.23804 1.196289,-0.354 0.579834,-0.12207 1.12915,-0.12207 1.483155,0 2.215577,0.76904 0.732422,0.76904 0.732422,2.33154 z" />
      <path
         id="path5395"
         style=""
         d="m 102.16064,168.86122 0,4.12598 -1.12304,0 0,-4.08936 q 0,-0.97046 -0.37842,-1.45263 -0.37842,-0.48218 -1.135254,-0.48218 -0.909424,0 -1.434326,0.57983 -0.524903,0.57984 -0.524903,1.58081 l 0,3.86353 -1.12915,0 0,-6.83594 1.12915,0 0,1.06201 q 0.402832,-0.61645 0.946045,-0.92163 0.549317,-0.30517 1.263428,-0.30517 1.17798,0 1.78223,0.73242 0.60424,0.72632 0.60424,2.14233 z" />
      <path
         id="path5397"
         style=""
         d="m 104.37012,163.49013 1.12915,0 0,5.60913 3.35083,-2.948 1.43432,0 -3.62548,3.19824 3.77807,3.6377 -1.46484,0 -3.4729,-3.33863 0,3.33863 -1.12915,0 0,-9.49707 z" />
      <path
         id="path5399"
         style=""
         d="m 120.85571,167.48793 -1.77612,0 -0.5127,2.03857 1.78833,0 0.50049,-2.03857 z m -0.91552,-3.4729 -0.63477,2.53296 1.78223,0 0.64087,-2.53296 0.97656,0 -0.62866,2.53296 1.90429,0 0,0.93994 -2.14233,0 -0.50049,2.03857 1.94092,0 0,0.93384 -2.17896,0 -0.63476,2.52686 -0.97656,0 0.62866,-2.52686 -1.78833,0 -0.62866,2.52686 -0.98267,0 0.63476,-2.52686 -1.9226,0 0,-0.93384 2.14844,0 0.51269,-2.03857 -1.96533,0 0,-0.93994 2.20337,0 0.62256,-2.53296 0.98877,0 z" />
      <path
         id="path5401"
         style=""
         d="m 128.91235,164.68642 q -0.95214,0 -1.43432,0.93994 -0.47608,0.93384 -0.47608,2.81372 0,1.87378 0.47608,2.81372 0.48218,0.93384 1.43432,0.93384 0.95826,0 1.43433,-0.93384 0.48218,-0.93994 0.48218,-2.81372 0,-1.87988 -0.48218,-2.81372 -0.47607,-0.93994 -1.43433,-0.93994 z m 0,-0.97657 q 1.53199,0 2.33765,1.2146 0.81177,1.2085 0.81177,3.51563 0,2.30102 -0.81177,3.51562 -0.80566,1.2085 -2.33765,1.2085 -1.53198,0 -2.34375,-1.2085 -0.80566,-1.2146 -0.80566,-3.51562 0,-2.30713 0.80566,-3.51563 0.81177,-1.2146 2.34375,-1.2146 z" />
    </g>
    <g
       id="text4377-3"
       style="font-style:normal;font-weight:normal;font-size:12.5px;line-height:125%;font-family:sans-serif;letter-spacing:0px;word-spacing:0px;fill:#000000;fill-opacity:1;stroke:none;stroke-width:1px;stroke-linecap:butt;stroke-linejoin:miter;stroke-opacity:1">
      <path
         id="path5404"
         style=""
         d="m 84.759521,227.46474 q 0.396729,0.13427 0.769043,0.57373 0.378418,0.43945 0.756836,1.20849 l 1.251221,2.49024 -1.324463,0 -1.165771,-2.33765 q -0.45166,-0.91553 -0.878907,-1.2146 -0.421142,-0.29907 -1.153564,-0.29907 l -1.342773,0 0,3.85132 -1.232911,0 0,-9.11255 2.783204,0 q 1.5625,0 2.331543,0.65308 0.769042,0.65307 0.769042,1.97143 0,0.8606 -0.402832,1.42822 -0.396728,0.56763 -1.159668,0.78736 z m -3.088378,-3.82691 0,3.23487 1.550293,0 q 0.891113,0 1.342773,-0.40894 0.457764,-0.41504 0.457764,-1.2146 0,-0.79956 -0.457764,-1.20239 -0.45166,-0.40894 -1.342773,-0.40894 l -1.550293,0 z" />
      <path
         id="path5406"
         style=""
         d="m 91.918945,228.30092 q -1.361084,0 -1.885986,0.31128 -0.524902,0.31128 -0.524902,1.06201 0,0.59814 0.390625,0.95215 0.396728,0.3479 1.074218,0.3479 0.933838,0 1.495362,-0.65918 0.567627,-0.66528 0.567627,-1.76392 l 0,-0.25024 -1.116944,0 z m 2.239991,-0.46387 0,3.90015 -1.123047,0 0,-1.0376 q -0.384522,0.62256 -0.958252,0.92163 -0.573731,0.29297 -1.403809,0.29297 -1.049805,0 -1.672363,-0.58594 -0.616455,-0.59204 -0.616455,-1.58081 0,-1.15356 0.769043,-1.7395 0.775146,-0.58594 2.307129,-0.58594 l 1.574707,0 0,-0.10986 q 0,-0.77515 -0.512696,-1.19629 -0.506591,-0.42725 -1.428222,-0.42725 -0.585938,0 -1.141358,0.14038 -0.55542,0.14039 -1.068115,0.42115 l 0,-1.0376 q 0.616455,-0.23804 1.196289,-0.354 0.579834,-0.12207 1.12915,-0.12207 1.483155,0 2.215577,0.76904 0.732422,0.76904 0.732422,2.33154 z" />
      <path
         id="path5408"
         style=""
         d="m 102.16064,227.61122 0,4.12598 -1.12304,0 0,-4.08936 q 0,-0.97046 -0.37842,-1.45263 -0.37842,-0.48218 -1.135254,-0.48218 -0.909424,0 -1.434326,0.57983 -0.524903,0.57984 -0.524903,1.58081 l 0,3.86353 -1.12915,0 0,-6.83594 1.12915,0 0,1.06201 q 0.402832,-0.61645 0.946045,-0.92163 0.549317,-0.30517 1.263428,-0.30517 1.17798,0 1.78223,0.73242 0.60424,0.72632 0.60424,2.14233 z" />
      <path
         id="path5410"
         style=""
         d="m 104.37012,222.24013 1.12915,0 0,5.60913 3.35083,-2.948 1.43432,0 -3.62548,3.19824 3.77807,3.6377 -1.46484,0 -3.4729,-3.33863 0,3.33863 -1.12915,0 0,-9.49707 z" />
      <path
         id="path5412"
         style=""
         d="m 120.85571,226.23793 -1.77612,0 -0.5127,2.03857 1.78833,0 0.50049,-2.03857 z m -0.91552,-3.4729 -0.63477,2.53296 1.78223,0 0.64087,-2.53296 0.97656,0 -0.62866,2.53296 1.90429,0 0,0.93994 -2.14233,0 -0.50049,2.03857 1.94092,0 0,0.93384 -2.17896,0 -0.63476,2.52686 -0.97656,0 0.62866,-2.52686 -1.78833,0 -0.62866,2.52686 -0.98267,0 0.63476,-2.52686 -1.9226,0 0,-0.93384 2.14844,0 0.51269,-2.03857 -1.96533,0 0,-0.93994 2.20337,0 0.62256,-2.53296 0.98877,0 z" />
      <path
         id="path5414"
         style=""
         d="m 126.48926,230.6996 2.01416,0 0,-6.9519 -2.19116,0.43945 0,-1.12305 2.17895,-0.43945 1.23291,0 0,8.07495 2.01416,0 0,1.0376 -5.24902,0 0,-1.0376 z" />
    </g>
    <g
       id="text4377-0"
       style="font-style:normal;font-weight:normal;font-size:12.5px;line-height:125%;font-family:sans-serif;letter-spacing:0px;word-spacing:0px;fill:#000000;fill-opacity:1;stroke:none;stroke-width:1px;stroke-linecap:butt;stroke-linejoin:miter;stroke-opacity:1">
      <path
         id="path5417"
         style=""
         d="m 84.759521,286.83975 q 0.396729,0.13428 0.769043,0.57373 0.378418,0.43946 0.756836,1.2085 l 1.251221,2.49023 -1.324463,0 -1.165771,-2.33764 q -0.45166,-0.91553 -0.878907,-1.2146 -0.421142,-0.29908 -1.153564,-0.29908 l -1.342773,0 0,3.85132 -1.232911,0 0,-9.11255 2.783204,0 q 1.5625,0 2.331543,0.65308 0.769042,0.65308 0.769042,1.97144 0,0.86059 -0.402832,1.42822 -0.396728,0.56763 -1.159668,0.78735 z m -3.088378,-3.8269 0,3.23486 1.550293,0 q 0.891113,0 1.342773,-0.40893 0.457764,-0.41504 0.457764,-1.2146 0,-0.79956 -0.457764,-1.2024 -0.45166,-0.40893 -1.342773,-0.40893 l -1.550293,0 z" />
      <path
         id="path5419"
         style=""
         d="m 91.918945,287.67593 q -1.361084,0 -1.885986,0.31128 -0.524902,0.31128 -0.524902,1.06201 0,0.59815 0.390625,0.95215 0.396728,0.3479 1.074218,0.3479 0.933838,0 1.495362,-0.65918 0.567627,-0.66528 0.567627,-1.76391 l 0,-0.25025 -1.116944,0 z m 2.239991,-0.46386 0,3.90014 -1.123047,0 0,-1.03759 q -0.384522,0.62255 -0.958252,0.92163 -0.573731,0.29297 -1.403809,0.29297 -1.049805,0 -1.672363,-0.58594 -0.616455,-0.59204 -0.616455,-1.58081 0,-1.15357 0.769043,-1.7395 0.775146,-0.58594 2.307129,-0.58594 l 1.574707,0 0,-0.10987 q 0,-0.77514 -0.512696,-1.19628 -0.506591,-0.42725 -1.428222,-0.42725 -0.585938,0 -1.141358,0.14038 -0.55542,0.14038 -1.068115,0.42114 l 0,-1.0376 q 0.616455,-0.23803 1.196289,-0.354 0.579834,-0.12207 1.12915,-0.12207 1.483155,0 2.215577,0.76904 0.732422,0.76905 0.732422,2.33155 z" />
      <path
         id="path5421"
         style=""
         d="m 102.16064,286.98624 0,4.12597 -1.12304,0 0,-4.08935 q 0,-0.97046 -0.37842,-1.45264 -0.37842,-0.48218 -1.135254,-0.48218 -0.909424,0 -1.434326,0.57984 -0.524903,0.57983 -0.524903,1.58081 l 0,3.86352 -1.12915,0 0,-6.83593 1.12915,0 0,1.06201 q 0.402832,-0.61646 0.946045,-0.92163 0.549317,-0.30518 1.263428,-0.30518 1.17798,0 1.78223,0.73242 0.60424,0.72632 0.60424,2.14234 z" />
      <path
         id="path5423"
         style=""
         d="m 104.37012,281.61514 1.12915,0 0,5.60913 3.35083,-2.94799 1.43432,0 -3.62548,3.19824 3.77807,3.63769 -1.46484,0 -3.4729,-3.33862 0,3.33862 -1.12915,0 0,-9.49707 z" />
      <path
         id="path5425"
         style=""
         d="m 120.85571,285.61295 -1.77612,0 -0.5127,2.03857 1.78833,0 0.50049,-2.03857 z m -0.91552,-3.4729 -0.63477,2.53295 1.78223,0 0.64087,-2.53295 0.97656,0 -0.62866,2.53295 1.90429,0 0,0.93995 -2.14233,0 -0.50049,2.03857 1.94092,0 0,0.93384 -2.17896,0 -0.63476,2.52685 -0.97656,0 0.62866,-2.52685 -1.78833,0 -0.62866,2.52685 -0.98267,0 0.63476,-2.52685 -1.9226,0 0,-0.93384 2.14844,0 0.51269,-2.03857 -1.96533,0 0,-0.93995 2.20337,0 0.62256,-2.53295 0.98877,0 z" />
      <path
         id="path5427"
         style=""
         d="m 127.33765,290.07462 4.30297,0 0,1.03759 -5.78613,0 0,-1.03759 q 0.70191,-0.72632 1.9104,-1.94703 1.2146,-1.2268 1.52588,-1.58081 0.59204,-0.66528 0.82398,-1.12304 0.23803,-0.46387 0.23803,-0.90943 0,-0.72632 -0.51269,-1.18408 -0.50659,-0.45776 -1.32447,-0.45776 -0.57983,0 -1.2268,0.20141 -0.64087,0.20142 -1.37329,0.61035 l 0,-1.24511 q 0.74463,-0.29907 1.3916,-0.45166 0.64697,-0.15259 1.18408,-0.15259 1.41602,0 2.2583,0.70801 0.84229,0.70801 0.84229,1.89209 0,0.56152 -0.21363,1.06811 -0.20752,0.50049 -0.76294,1.18408 -0.15258,0.17701 -0.97045,1.02539 -0.81788,0.84229 -2.30713,2.36207 z" />
    </g>
    <g
       id="text4377-6"
       style="font-style:normal;font-weight:normal;font-size:12.5px;line-height:125%;font-family:sans-serif;letter-spacing:0px;word-spacing:0px;fill:#000000;fill-opacity:1;stroke:none;stroke-width:1px;stroke-linecap:butt;stroke-linejoin:miter;stroke-opacity:1">
      <path
         id="path5430"
         style=""
         d="m 84.759521,341.21475 q 0.396729,0.13428 0.769043,0.57373 0.378418,0.43946 0.756836,1.2085 l 1.251221,2.49023 -1.324463,0 -1.165771,-2.33764 q -0.45166,-0.91553 -0.878907,-1.2146 -0.421142,-0.29908 -1.153564,-0.29908 l -1.342773,0 0,3.85132 -1.232911,0 0,-9.11255 2.783204,0 q 1.5625,0 2.331543,0.65308 0.769042,0.65308 0.769042,1.97144 0,0.86059 -0.402832,1.42822 -0.396728,0.56763 -1.159668,0.78735 z m -3.088378,-3.8269 0,3.23486 1.550293,0 q 0.891113,0 1.342773,-0.40893 0.457764,-0.41504 0.457764,-1.2146 0,-0.79956 -0.457764,-1.2024 -0.45166,-0.40893 -1.342773,-0.40893 l -1.550293,0 z" />
      <path
         id="path5432"
         style=""
         d="m 91.918945,342.05093 q -1.361084,0 -1.885986,0.31128 -0.524902,0.31128 -0.524902,1.06201 0,0.59815 0.390625,0.95215 0.396728,0.3479 1.074218,0.3479 0.933838,0 1.495362,-0.65918 0.567627,-0.66528 0.567627,-1.76391 l 0,-0.25025 -1.116944,0 z m 2.239991,-0.46386 0,3.90014 -1.123047,0 0,-1.03759 q -0.384522,0.62255 -0.958252,0.92163 -0.573731,0.29297 -1.403809,0.29297 -1.049805,0 -1.672363,-0.58594 -0.616455,-0.59204 -0.616455,-1.58081 0,-1.15357 0.769043,-1.7395 0.775146,-0.58594 2.307129,-0.58594 l 1.574707,0 0,-0.10987 q 0,-0.77514 -0.512696,-1.19628 -0.506591,-0.42725 -1.428222,-0.42725 -0.585938,0 -1.141358,0.14038 -0.55542,0.14038 -1.068115,0.42114 l 0,-1.0376 q 0.616455,-0.23803 1.196289,-0.354 0.579834,-0.12207 1.12915,-0.12207 1.483155,0 2.215577,0.76904 0.732422,0.76905 0.732422,2.33155 z" />
      <path
         id="path5434"
         style=""
         d="m 102.16064,341.36124 0,4.12597 -1.12304,0 0,-4.08935 q 0,-0.97046 -0.37842,-1.45264 -0.37842,-0.48218 -1.135254,-0.48218 -0.909424,0 -1.434326,0.57984 -0.524903,0.57983 -0.524903,1.58081 l 0,3.86352 -1.12915,0 0,-6.83593 1.12915,0 0,1.06201 q 0.402832,-0.61646 0.946045,-0.92163 0.549317,-0.30518 1.263428,-0.30518 1.17798,0 1.78223,0.73242 0.60424,0.72632 0.60424,2.14234 z" />
      <path
         id="path5436"
         style=""
         d="m 104.37012,335.99014 1.12915,0 0,5.60913 3.35083,-2.94799 1.43432,0 -3.62548,3.19824 3.77807,3.63769 -1.46484,0 -3.4729,-3.33862 0,3.33862 -1.12915,0 0,-9.49707 z" />
      <path
         id="path5438"
         style=""
         d="m 120.85571,339.98795 -1.77612,0 -0.5127,2.03857 1.78833,0 0.50049,-2.03857 z m -0.91552,-3.4729 -0.63477,2.53295 1.78223,0 0.64087,-2.53295 0.97656,0 -0.62866,2.53295 1.90429,0 0,0.93995 -2.14233,0 -0.50049,2.03857 1.94092,0 0,0.93384 -2.17896,0 -0.63476,2.52685 -0.97656,0 0.62866,-2.52685 -1.78833,0 -0.62866,2.52685 -0.98267,0 0.63476,-2.52685 -1.9226,0 0,-0.93384 2.14844,0 0.51269,-2.03857 -1.96533,0 0,-0.93995 2.20337,0 0.62256,-2.53295 0.98877,0 z" />
      <path
         id="path5440"
         style=""
         d="m 130.01099,340.57388 q 0.88501,0.18921 1.37939,0.78736 0.50049,0.59814 0.50049,1.47705 0,1.34887 -0.92774,2.0874 -0.92773,0.73853 -2.63671,0.73853 -0.57373,0 -1.18409,-0.11597 -0.60424,-0.10986 -1.25122,-0.3357 l 0,-1.19018 q 0.5127,0.29907 1.12305,0.45166 0.61035,0.15259 1.27563,0.15259 1.15967,0 1.76392,-0.45777 0.61035,-0.45776 0.61035,-1.33056 0,-0.80567 -0.56762,-1.25733 -0.56153,-0.45776 -1.56861,-0.45776 l -1.06201,0 0,-1.01318 1.11084,0 q 0.90942,0 1.3916,-0.36011 0.48218,-0.36621 0.48218,-1.04981 0,-0.7019 -0.50049,-1.07421 -0.49438,-0.37842 -1.42212,-0.37842 -0.50659,0 -1.08642,0.10986 -0.57984,0.10986 -1.27564,0.3418 l 0,-1.09864 q 0.70191,-0.19531 1.31226,-0.29296 0.61645,-0.0977 1.15967,-0.0977 1.4038,0 2.22167,0.64087 0.81788,0.63476 0.81788,1.72119 0,0.75684 -0.43335,1.28174 -0.43335,0.5188 -1.23291,0.72021 z" />
    </g>
    <g
       id="text4377-8"
       style="font-style:normal;font-weight:normal;font-size:12.5px;line-height:125%;font-family:sans-serif;letter-spacing:0px;word-spacing:0px;fill:#000000;fill-opacity:1;stroke:none;stroke-width:1px;stroke-linecap:butt;stroke-linejoin:miter;stroke-opacity:1">
      <path
         id="path5345"
         style=""
         d="m 196.06323,166.0347 1.23291,0 0,8.07495 4.43726,0 0,1.0376 -5.67017,0 0,-9.11255 z" />
      <path
         id="path5347"
         style=""
         d="m 205.40161,169.09866 q -0.90332,0 -1.42822,0.70801 -0.5249,0.70191 -0.5249,1.92871 0,1.22681 0.5188,1.93482 0.5249,0.7019 1.43432,0.7019 0.89722,0 1.42212,-0.70801 0.5249,-0.708 0.5249,-1.92871 0,-1.2146 -0.5249,-1.92261 -0.5249,-0.71411 -1.42212,-0.71411 z m 0,-0.95215 q 1.46485,0 2.30103,0.95215 0.83618,0.95215 0.83618,2.63672 0,1.67847 -0.83618,2.63672 -0.83618,0.95215 -2.30103,0.95215 -1.47095,0 -2.30713,-0.95215 -0.83008,-0.95825 -0.83008,-2.63672 0,-1.68457 0.83008,-2.63672 0.83618,-0.95215 2.30713,-0.95215 z" />
      <path
         id="path5349"
         style=""
         d="m 215.31372,168.57376 0,1.04981 q -0.47607,-0.26246 -0.95825,-0.39063 -0.47608,-0.13428 -0.96436,-0.13428 -1.09253,0 -1.69677,0.6958 -0.60425,0.6897 -0.60425,1.94092 0,1.25122 0.60425,1.94702 0.60424,0.6897 1.69677,0.6897 0.48828,0 0.96436,-0.12817 0.48218,-0.13428 0.95825,-0.39673 l 0,1.0376 q -0.46997,0.21972 -0.97656,0.32959 -0.50049,0.10986 -1.06812,0.10986 -1.54419,0 -2.45361,-0.97046 -0.90942,-0.97046 -0.90942,-2.61841 0,-1.67236 0.91552,-2.63061 0.92163,-0.95826 2.52076,-0.95826 0.51879,0 1.01318,0.10987 0.49438,0.10376 0.95825,0.31738 z" />
      <path
         id="path5351"
         style=""
         d="m 220.38574,171.71097 q -1.36108,0 -1.88598,0.31128 -0.52491,0.31128 -0.52491,1.06201 0,0.59814 0.39063,0.95215 0.39673,0.3479 1.07422,0.3479 0.93384,0 1.49536,-0.65918 0.56763,-0.66529 0.56763,-1.76392 l 0,-0.25024 -1.11695,0 z m 2.23999,-0.46387 0,3.90015 -1.12304,0 0,-1.0376 q -0.38453,0.62256 -0.95826,0.92163 -0.57373,0.29297 -1.40381,0.29297 -1.0498,0 -1.67236,-0.58594 -0.61645,-0.59204 -0.61645,-1.58081 0,-1.15356 0.76904,-1.7395 0.77515,-0.58594 2.30713,-0.58594 l 1.57471,0 0,-0.10986 q 0,-0.77515 -0.5127,-1.19629 -0.50659,-0.42725 -1.42822,-0.42725 -0.58594,0 -1.14136,0.14038 -0.55542,0.14039 -1.06812,0.42115 l 0,-1.0376 q 0.61646,-0.23804 1.19629,-0.354 0.57984,-0.12208 1.12915,-0.12208 1.48316,0 2.21558,0.76905 0.73242,0.76904 0.73242,2.33154 z" />
      <path
         id="path5353"
         style=""
         d="m 224.94507,165.65018 1.12305,0 0,9.49707 -1.12305,0 0,-9.49707 z" />
    </g>
    <g
       id="text4377-8-9"
       style="font-style:normal;font-weight:normal;font-size:12.5px;line-height:125%;font-family:sans-serif;letter-spacing:0px;word-spacing:0px;fill:#000000;fill-opacity:1;stroke:none;stroke-width:1px;stroke-linecap:butt;stroke-linejoin:miter;stroke-opacity:1">
      <path
         id="path5356"
         style=""
         d="m 197.19238,229.56418 0,3.62549 -1.12915,0 0,-9.43604 1.12915,0 0,1.0376 q 0.35401,-0.61035 0.89112,-0.90332 0.54321,-0.29907 1.29394,-0.29907 1.24512,0 2.02027,0.98877 0.78125,0.98877 0.78125,2.60009 0,1.61133 -0.78125,2.6001 -0.77515,0.98877 -2.02027,0.98877 -0.75073,0 -1.29394,-0.29297 -0.53711,-0.29907 -0.89112,-0.90942 z m 3.8208,-2.38648 q 0,-1.23901 -0.51269,-1.94091 -0.50659,-0.70801 -1.39771,-0.70801 -0.89111,0 -1.40381,0.70801 -0.50659,0.7019 -0.50659,1.94091 0,1.23902 0.50659,1.94703 0.5127,0.7019 1.40381,0.7019 0.89112,0 1.39771,-0.7019 0.51269,-0.70801 0.51269,-1.94703 z" />
      <path
         id="path5358"
         style=""
         d="m 206.68945,224.54099 q -0.90332,0 -1.42822,0.708 -0.5249,0.70191 -0.5249,1.92871 0,1.22681 0.5188,1.93482 0.5249,0.7019 1.43432,0.7019 0.89722,0 1.42212,-0.70801 0.5249,-0.708 0.5249,-1.92871 0,-1.2146 -0.5249,-1.9226 -0.5249,-0.71411 -1.42212,-0.71411 z m 0,-0.95215 q 1.46485,0 2.30103,0.95215 0.83618,0.95214 0.83618,2.63671 0,1.67847 -0.83618,2.63672 -0.83618,0.95215 -2.30103,0.95215 -1.47094,0 -2.30713,-0.95215 -0.83007,-0.95825 -0.83007,-2.63672 0,-1.68457 0.83007,-2.63671 0.83619,-0.95215 2.30713,-0.95215 z" />
      <path
         id="path5360"
         style=""
         d="m 215.64331,224.80344 q -0.18921,-0.10987 -0.41504,-0.1587 -0.21973,-0.0549 -0.48828,-0.0549 -0.95215,0 -1.46484,0.62256 -0.5066,0.61646 -0.5066,1.77612 l 0,3.60108 -1.12915,0 0,-6.83594 1.12915,0 0,1.06201 q 0.35401,-0.62256 0.92164,-0.92163 0.56762,-0.30517 1.37939,-0.30517 0.11597,0 0.25635,0.0183 0.14038,0.0122 0.31128,0.0427 l 0.006,1.15357 z" />
      <path
         id="path5362"
         style=""
         d="m 217.94434,221.81271 0,1.94092 2.31323,0 0,0.8728 -2.31323,0 0,3.71094 q 0,0.83618 0.22583,1.07422 0.23193,0.23804 0.93383,0.23804 l 1.15357,0 0,0.93994 -1.15357,0 q -1.30004,0 -1.79443,-0.48218 -0.49438,-0.48828 -0.49438,-1.77002 l 0,-3.71094 -0.82398,0 0,-0.8728 0.82398,0 0,-1.94092 1.12915,0 z" />
      <path
         id="path5364"
         style=""
         d="m 221.74072,223.75363 1.12305,0 0,6.83594 -1.12305,0 0,-6.83594 z m 0,-2.66113 1.12305,0 0,1.42212 -1.12305,0 0,-1.42212 z" />
      <path
         id="path5366"
         style=""
         d="m 227.85645,224.54099 q -0.90333,0 -1.42823,0.708 -0.5249,0.70191 -0.5249,1.92871 0,1.22681 0.5188,1.93482 0.5249,0.7019 1.43433,0.7019 0.89721,0 1.42211,-0.70801 0.52491,-0.708 0.52491,-1.92871 0,-1.2146 -0.52491,-1.9226 -0.5249,-0.71411 -1.42211,-0.71411 z m 0,-0.95215 q 1.46484,0 2.30102,0.95215 0.83618,0.95214 0.83618,2.63671 0,1.67847 -0.83618,2.63672 -0.83618,0.95215 -2.30102,0.95215 -1.47095,0 -2.30713,-0.95215 -0.83008,-0.95825 -0.83008,-2.63672 0,-1.68457 0.83008,-2.63671 0.83618,-0.95215 2.30713,-0.95215 z" />
      <path
         id="path5368"
         style=""
         d="m 238.53149,226.46359 0,4.12598 -1.12304,0 0,-4.08936 q 0,-0.97046 -0.37842,-1.45263 -0.37842,-0.48218 -1.13525,-0.48218 -0.90943,0 -1.43433,0.57983 -0.5249,0.57984 -0.5249,1.58081 l 0,3.86353 -1.12915,0 0,-6.83594 1.12915,0 0,1.06201 q 0.40283,-0.61645 0.94604,-0.92163 0.54932,-0.30517 1.26343,-0.30517 1.17798,0 1.78223,0.73242 0.60424,0.72632 0.60424,2.14233 z" />
    </g>
    <g
       id="text4377-8-0"
       style="font-style:normal;font-weight:normal;font-size:12.5px;line-height:125%;font-family:sans-serif;letter-spacing:0px;word-spacing:0px;fill:#000000;fill-opacity:1;stroke:none;stroke-width:1px;stroke-linecap:butt;stroke-linejoin:miter;stroke-opacity:1">
      <path
         id="path5382"
         style=""
         d="m 201.0498,340.39993 q 0,-1.2207 -0.50659,-1.89209 -0.50049,-0.67138 -1.40991,-0.67138 -0.90332,0 -1.40991,0.67138 -0.50049,0.67139 -0.50049,1.89209 0,1.2146 0.50049,1.88599 0.50659,0.67139 1.40991,0.67139 0.90942,0 1.40991,-0.67139 0.50659,-0.67139 0.50659,-1.88599 z m 1.12305,2.64893 q 0,1.7456 -0.77514,2.59399 -0.77515,0.85449 -2.37427,0.85449 -0.59204,0 -1.11695,-0.0915 -0.5249,-0.0855 -1.01928,-0.26855 l 0,-1.09253 q 0.49438,0.26855 0.97656,0.39673 0.48218,0.12817 0.98267,0.12817 1.10473,0 1.65405,-0.57983 0.54931,-0.57373 0.54931,-1.73951 l 0,-0.55542 q -0.3479,0.60425 -0.89111,0.90333 -0.54321,0.29907 -1.30005,0.29907 -1.25732,0 -2.02636,-0.95825 -0.76905,-0.95826 -0.76905,-2.53907 0,-1.58691 0.76905,-2.54516 0.76904,-0.95826 2.02636,-0.95826 0.75684,0 1.30005,0.29908 0.54321,0.29907 0.89111,0.90332 l 0,-1.0376 1.12305,0 0,5.98755 z" />
      <path
         id="path5384"
         style=""
         d="m 208.44727,338.11111 q -0.18921,-0.10986 -0.41504,-0.15869 -0.21973,-0.0549 -0.48828,-0.0549 -0.95215,0 -1.46485,0.62256 -0.50659,0.61646 -0.50659,1.77612 l 0,3.60108 -1.12915,0 0,-6.83594 1.12915,0 0,1.06201 q 0.354,-0.62256 0.92163,-0.92163 0.56763,-0.30518 1.3794,-0.30518 0.11596,0 0.25634,0.0183 0.14038,0.0122 0.31128,0.0427 l 0.006,1.15356 z" />
      <path
         id="path5386"
         style=""
         d="m 209.63745,337.06131 1.12305,0 0,6.83594 -1.12305,0 0,-6.83594 z m 0,-2.66113 1.12305,0 0,1.42212 -1.12305,0 0,-1.42212 z" />
      <path
         id="path5388"
         style=""
         d="m 217.60254,338.09891 0,-3.69873 1.12305,0 0,9.49707 -1.12305,0 0,-1.02539 q -0.354,0.61035 -0.89722,0.90942 -0.53711,0.29297 -1.29394,0.29297 -1.23902,0 -2.02027,-0.98877 -0.77514,-0.98877 -0.77514,-2.6001 0,-1.61133 0.77514,-2.6001 0.78125,-0.98877 2.02027,-0.98877 0.75683,0 1.29394,0.29908 0.54322,0.29297 0.89722,0.90332 z m -3.82691,2.38647 q 0,1.23902 0.5066,1.94702 0.51269,0.70191 1.40381,0.70191 0.89111,0 1.4038,-0.70191 0.5127,-0.708 0.5127,-1.94702 0,-1.23901 -0.5127,-1.94092 -0.51269,-0.708 -1.4038,-0.708 -0.89112,0 -1.40381,0.708 -0.5066,0.70191 -0.5066,1.94092 z" />
    </g>
    <g
       id="text4377-8-7"
       style="font-style:normal;font-weight:normal;font-size:12.5px;line-height:125%;font-family:sans-serif;letter-spacing:0px;word-spacing:0px;fill:#000000;fill-opacity:1;stroke:none;stroke-width:1px;stroke-linecap:butt;stroke-linejoin:miter;stroke-opacity:1">
      <path
         id="path5371"
         style=""
         d="m 199.20044,282.40634 q -0.90332,0 -1.42822,0.70801 -0.52491,0.7019 -0.52491,1.92871 0,1.22681 0.5188,1.93481 0.52491,0.70191 1.43433,0.70191 0.89722,0 1.42212,-0.70801 0.5249,-0.70801 0.5249,-1.92871 0,-1.2146 -0.5249,-1.92261 -0.5249,-0.71411 -1.42212,-0.71411 z m 0,-0.95215 q 1.46484,0 2.30102,0.95215 0.83619,0.95215 0.83619,2.63672 0,1.67847 -0.83619,2.63672 -0.83618,0.95215 -2.30102,0.95215 -1.47095,0 -2.30713,-0.95215 -0.83008,-0.95825 -0.83008,-2.63672 0,-1.68457 0.83008,-2.63672 0.83618,-0.95215 2.30713,-0.95215 z" />
      <path
         id="path5373"
         style=""
         d="m 207.65381,278.95786 0,0.93383 -1.07422,0 q -0.60425,0 -0.84229,0.24414 -0.23193,0.24414 -0.23193,0.87891 l 0,0.60425 1.84937,0 0,0.8728 -1.84937,0 0,5.96314 -1.12915,0 0,-5.96314 -1.07422,0 0,-0.8728 1.07422,0 0,-0.47608 q 0,-1.14135 0.53101,-1.66015 0.531,-0.5249 1.68457,-0.5249 l 1.06201,0 z" />
      <path
         id="path5375"
         style=""
         d="m 213.67798,279.67807 0,1.94092 2.31323,0 0,0.8728 -2.31323,0 0,3.71094 q 0,0.83618 0.22583,1.07422 0.23193,0.23803 0.93384,0.23803 l 1.15356,0 0,0.93995 -1.15356,0 q -1.30005,0 -1.79444,-0.48218 -0.49438,-0.48828 -0.49438,-1.77002 l 0,-3.71094 -0.82398,0 0,-0.8728 0.82398,0 0,-1.94092 1.12915,0 z" />
      <path
         id="path5377"
         style=""
         d="m 223.15674,284.32895 0,4.12598 -1.12305,0 0,-4.08936 q 0,-0.97046 -0.37842,-1.45264 -0.37841,-0.48217 -1.13525,-0.48217 -0.90942,0 -1.43433,0.57983 -0.5249,0.57983 -0.5249,1.58081 l 0,3.86353 -1.12915,0 0,-9.49707 1.12915,0 0,3.72314 q 0.40283,-0.61646 0.94605,-0.92163 0.54931,-0.30518 1.26342,-0.30518 1.17798,0 1.78223,0.73242 0.60425,0.72632 0.60425,2.14234 z" />
      <path
         id="path5379"
         style=""
         d="m 231.2561,284.7562 0,0.54931 -5.16357,0 q 0.0732,1.15967 0.6958,1.77002 0.62866,0.60425 1.74561,0.60425 0.64697,0 1.25122,-0.15869 0.61035,-0.15869 1.20849,-0.47608 l 0,1.06202 q -0.60425,0.25634 -1.23901,0.39062 -0.63477,0.13428 -1.28784,0.13428 -1.63575,0 -2.594,-0.95215 -0.95215,-0.95215 -0.95215,-2.57568 0,-1.67847 0.90332,-2.66114 0.90943,-0.98877 2.44751,-0.98877 1.3794,0 2.17896,0.89112 0.80566,0.88501 0.80566,2.41089 z m -1.12304,-0.32959 q -0.0122,-0.92164 -0.5188,-1.47095 -0.50049,-0.54932 -1.33057,-0.54932 -0.93994,0 -1.50757,0.53101 -0.56152,0.531 -0.64697,1.49536 l 4.00391,-0.006 z" />
    </g>
    <path
       id="path4467"
       d="m 151.09375,189.70595 c 129.21875,0 129.21875,0 129.21875,0"
       style="fill:none;fill-rule:evenodd;stroke:#000000;stroke-width:0.5;stroke-linecap:butt;stroke-linejoin:miter;stroke-miterlimit:4;stroke-dasharray:none;stroke-opacity:1" />
    <path
       id="path4467-9"
       d="m 151.76563,208.4872 c 129.21875,0 129.21875,0 129.21875,0"
       style="fill:none;fill-rule:evenodd;stroke:#000000;stroke-width:0.5;stroke-linecap:butt;stroke-linejoin:miter;stroke-miterlimit:4;stroke-dasharray:none;stroke-opacity:1" />
    <path
       id="path4467-2"
       d="m 151.48438,248.26845 c 129.21875,0 129.21875,0 129.21875,0"
       style="fill:none;fill-rule:evenodd;stroke:#000000;stroke-width:0.5;stroke-linecap:butt;stroke-linejoin:miter;stroke-miterlimit:4;stroke-dasharray:none;stroke-opacity:1" />
    <path
       id="path4467-28"
       d="m 151.32813,266.89345 c 129.21875,0 129.21875,0 129.21875,0"
       style="fill:none;fill-rule:evenodd;stroke:#000000;stroke-width:0.5;stroke-linecap:butt;stroke-linejoin:miter;stroke-miterlimit:4;stroke-dasharray:none;stroke-opacity:1" />
    <path
       id="path4467-97"
       d="m 151.35938,306.58095 c 129.21875,0 129.21875,0 129.21875,0"
       style="fill:none;fill-rule:evenodd;stroke:#000000;stroke-width:0.5;stroke-linecap:butt;stroke-linejoin:miter;stroke-miterlimit:4;stroke-dasharray:none;stroke-opacity:1" />
    <path
       id="path4467-3"
       d="m 151.32813,325.33095 c 129.21875,0 129.21875,0 129.21875,0"
       style="fill:none;fill-rule:evenodd;stroke:#000000;stroke-width:0.5;stroke-linecap:butt;stroke-linejoin:miter;stroke-miterlimit:4;stroke-dasharray:none;stroke-opacity:1" />
    <path
       id="rect4510"
       d="m 310.85764,263.67559 125.70877,0 0,46.80455 -125.70877,0 0,-29.72723 -26.99879,-7.44047 26.99879,-1.39774 z"
       style="fill:#d2d2d2;fill-opacity:1;stroke:#000000;stroke-width:0.54868472;stroke-miterlimit:4;stroke-dasharray:none;stroke-dashoffset:0;stroke-opacity:1" />
    <text
       id="text4513"
       y="241.4247"
       x="314.53125"
       style="font-style:normal;font-weight:normal;font-size:7.5px;line-height:125%;font-family:sans-serif;letter-spacing:0px;word-spacing:0px;fill:#000000;fill-opacity:1;stroke:none;stroke-width:1px;stroke-linecap:butt;stroke-linejoin:miter;stroke-opacity:1"
       xml:space="preserve"><tspan
         y="241.4247"
         x="314.53125"
         id="tspan4515" /></text>
    <path
       id="rect4510-6"
       d="m 310.54428,192.08493 125.70877,0 0,46.80455 -125.70877,0 0,-8.95597 -26.99879,21.06477 26.99879,-34.54337 z"
       style="fill:#d2d2d2;fill-opacity:1;stroke:#000000;stroke-width:0.54868472;stroke-miterlimit:4;stroke-dasharray:none;stroke-dashoffset:0;stroke-opacity:1" />
    <g
       id="text4634"
       style="font-style:normal;font-weight:normal;font-size:12.24231148px;line-height:125%;font-family:sans-serif;text-align:start;letter-spacing:0px;word-spacing:0px;writing-mode:lr-tb;text-anchor:start;fill:#000000;fill-opacity:1;stroke:none;stroke-width:1px;stroke-linecap:butt;stroke-linejoin:miter;stroke-opacity:1"
       transform="scale(0.97938491,1.021049)">
      <path
         id="path5125"
         style="font-size:10.00000095px"
         d="m 321.36957,194.51474 4.60937,0 0,0.83008 -3.62304,0 0,2.1582 3.47168,0 0,0.83008 -3.47168,0 0,2.6416 3.71093,0 0,0.83008 -4.69726,0 0,-7.29004 z" />
      <path
         id="path5127"
         style="font-size:10.00000095px"
         d="m 330.14398,199.05576 q -1.08886,0 -1.50879,0.24902 -0.41992,0.24902 -0.41992,0.84961 0,0.47851 0.3125,0.76172 0.31738,0.27832 0.85938,0.27832 0.74707,0 1.19629,-0.52735 0.4541,-0.53222 0.4541,-1.41113 l 0,-0.20019 -0.89356,0 z m 1.792,-0.3711 0,3.12012 -0.89844,0 0,-0.83008 q -0.30762,0.49805 -0.7666,0.73731 -0.45899,0.23437 -1.12305,0.23437 -0.83984,0 -1.33789,-0.46875 -0.49317,-0.47363 -0.49317,-1.26465 0,-0.92285 0.61524,-1.3916 0.62012,-0.46875 1.8457,-0.46875 l 1.25977,0 0,-0.0879 q 0,-0.62012 -0.41016,-0.95703 -0.40527,-0.3418 -1.14258,-0.3418 -0.46875,0 -0.91308,0.11231 -0.44434,0.1123 -0.8545,0.33691 l 0,-0.83008 q 0.49317,-0.19043 0.95704,-0.2832 0.46386,-0.0977 0.90332,-0.0977 1.18652,0 1.77246,0.61524 0.58594,0.61523 0.58594,1.86523 z" />
      <path
         id="path5129"
         style="font-size:10.00000095px"
         d="m 337.72699,196.54599 0,0.83984 q -0.38086,-0.20996 -0.7666,-0.3125 -0.38086,-0.10742 -0.77148,-0.10742 -0.87403,0 -1.35743,0.55664 -0.4834,0.55176 -0.4834,1.55274 0,1.00097 0.4834,1.55761 0.4834,0.55176 1.35743,0.55176 0.39062,0 0.77148,-0.10254 0.38574,-0.10742 0.7666,-0.31738 l 0,0.83008 q -0.37598,0.17578 -0.78125,0.26367 -0.40039,0.0879 -0.85449,0.0879 -1.23535,0 -1.96289,-0.77637 -0.72754,-0.77636 -0.72754,-2.09472 0,-1.33789 0.73242,-2.1045 0.73731,-0.7666 2.0166,-0.7666 0.41504,0 0.81055,0.0879 0.39551,0.083 0.7666,0.25391 z" />
      <path
         id="path5131"
         style="font-size:10.00000095px"
         d="m 343.84516,198.504 0,3.30078 -0.89844,0 0,-3.27149 q 0,-0.77636 -0.30274,-1.16211 -0.30273,-0.38574 -0.9082,-0.38574 -0.72754,0 -1.14746,0.46387 -0.41992,0.46387 -0.41992,1.26465 l 0,3.09082 -0.90332,0 0,-7.59766 0.90332,0 0,2.97852 q 0.32226,-0.49317 0.75683,-0.73731 0.43946,-0.24414 1.01075,-0.24414 0.94238,0 1.42578,0.58594 0.4834,0.58105 0.4834,1.71387 z" />
      <path
         id="path5133"
         style="font-size:10.00000095px"
         d="m 351.99945,197.17587 q -0.15136,-0.0879 -0.33203,-0.12695 -0.17578,-0.044 -0.39062,-0.044 -0.76172,0 -1.17188,0.49805 -0.40527,0.49316 -0.40527,1.4209 l 0,2.88086 -0.90332,0 0,-5.46875 0.90332,0 0,0.84961 q 0.2832,-0.49805 0.7373,-0.73731 0.4541,-0.24414 1.10352,-0.24414 0.0928,0 0.20508,0.0146 0.1123,0.01 0.24902,0.0342 l 0.005,0.92285 z" />
      <path
         id="path5135"
         style="font-size:10.00000095px"
         d="m 355.43695,199.05576 q -1.08886,0 -1.50879,0.24902 -0.41992,0.24902 -0.41992,0.84961 0,0.47851 0.3125,0.76172 0.31738,0.27832 0.85938,0.27832 0.74707,0 1.19629,-0.52735 0.4541,-0.53222 0.4541,-1.41113 l 0,-0.20019 -0.89356,0 z m 1.792,-0.3711 0,3.12012 -0.89844,0 0,-0.83008 q -0.30762,0.49805 -0.7666,0.73731 -0.45899,0.23437 -1.12305,0.23437 -0.83984,0 -1.33789,-0.46875 -0.49317,-0.47363 -0.49317,-1.26465 0,-0.92285 0.61524,-1.3916 0.62012,-0.46875 1.8457,-0.46875 l 1.25977,0 0,-0.0879 q 0,-0.62012 -0.41016,-0.95703 -0.40527,-0.3418 -1.14258,-0.3418 -0.46875,0 -0.91308,0.11231 -0.44434,0.1123 -0.8545,0.33691 l 0,-0.83008 q 0.49317,-0.19043 0.95704,-0.2832 0.46386,-0.0977 0.90332,-0.0977 1.18652,0 1.77246,0.61524 0.58594,0.61523 0.58594,1.86523 z" />
      <path
         id="path5137"
         style="font-size:10.00000095px"
         d="m 363.63031,198.504 0,3.30078 -0.89843,0 0,-3.27149 q 0,-0.77636 -0.30274,-1.16211 -0.30273,-0.38574 -0.9082,-0.38574 -0.72754,0 -1.14746,0.46387 -0.41992,0.46387 -0.41992,1.26465 l 0,3.09082 -0.90332,0 0,-5.46875 0.90332,0 0,0.84961 q 0.32226,-0.49317 0.75683,-0.73731 0.43946,-0.24414 1.01074,-0.24414 0.94239,0 1.42579,0.58594 0.48339,0.58105 0.48339,1.71387 z" />
      <path
         id="path5139"
         style="font-size:10.00000095px"
         d="m 365.39789,194.20712 0.90332,0 0,4.48731 2.68067,-2.3584 1.14746,0 -2.90039,2.55859 3.02246,2.91016 -1.17188,0 -2.77832,-2.6709 0,2.6709 -0.90332,0 0,-7.59766 z" />
      <path
         id="path5141"
         style="font-size:10.00000095px"
         d="m 378.96235,198.504 0,3.30078 -0.89844,0 0,-3.27149 q 0,-0.77636 -0.30274,-1.16211 -0.30273,-0.38574 -0.9082,-0.38574 -0.72754,0 -1.14746,0.46387 -0.41992,0.46387 -0.41992,1.26465 l 0,3.09082 -0.90332,0 0,-7.59766 0.90332,0 0,2.97852 q 0.32226,-0.49317 0.75683,-0.73731 0.43946,-0.24414 1.01075,-0.24414 0.94238,0 1.42578,0.58594 0.4834,0.58105 0.4834,1.71387 z" />
      <path
         id="path5143"
         style="font-size:10.00000095px"
         d="m 383.24945,199.05576 q -1.08886,0 -1.50878,0.24902 -0.41993,0.24902 -0.41993,0.84961 0,0.47851 0.3125,0.76172 0.31739,0.27832 0.85938,0.27832 0.74707,0 1.19629,-0.52735 0.4541,-0.53222 0.4541,-1.41113 l 0,-0.20019 -0.89356,0 z m 1.792,-0.3711 0,3.12012 -0.89844,0 0,-0.83008 q -0.30762,0.49805 -0.7666,0.73731 -0.45899,0.23437 -1.12305,0.23437 -0.83984,0 -1.33789,-0.46875 -0.49316,-0.47363 -0.49316,-1.26465 0,-0.92285 0.61523,-1.3916 0.62012,-0.46875 1.8457,-0.46875 l 1.25977,0 0,-0.0879 q 0,-0.62012 -0.41016,-0.95703 -0.40527,-0.3418 -1.14257,-0.3418 -0.46875,0 -0.91309,0.11231 -0.44434,0.1123 -0.85449,0.33691 l 0,-0.83008 q 0.49316,-0.19043 0.95703,-0.2832 0.46387,-0.0977 0.90332,-0.0977 1.18652,0 1.77246,0.61524 0.58594,0.61523 0.58594,1.86523 z" />
      <path
         id="path5145"
         style="font-size:10.00000095px"
         d="m 390.38325,196.49716 0,0.84961 q -0.38086,-0.19531 -0.79102,-0.29297 -0.41015,-0.0976 -0.84961,-0.0976 -0.66894,0 -1.00586,0.20507 -0.33203,0.20508 -0.33203,0.61524 0,0.3125 0.23926,0.49316 0.23926,0.17578 0.96191,0.33692 l 0.30762,0.0684 q 0.95703,0.20507 1.35742,0.58105 0.40528,0.37109 0.40528,1.04004 0,0.76172 -0.60547,1.20605 -0.60059,0.44434 -1.65528,0.44434 -0.43945,0 -0.91796,-0.0879 -0.47364,-0.083 -1.00098,-0.25391 l 0,-0.92773 q 0.49805,0.25879 0.98144,0.39062 0.4834,0.12696 0.95704,0.12696 0.63476,0 0.97656,-0.21485 0.34179,-0.21972 0.34179,-0.61523 0,-0.36621 -0.24902,-0.56152 -0.24414,-0.19532 -1.0791,-0.37598 l -0.3125,-0.0732 q -0.83496,-0.17578 -1.20606,-0.53711 -0.37109,-0.36621 -0.37109,-1.00098 0,-0.77148 0.54688,-1.19141 0.54687,-0.41992 1.55273,-0.41992 0.49805,0 0.9375,0.0732 0.43945,0.0733 0.81055,0.21973 z" />
      <path
         id="path5147"
         style="font-size:10.00000095px"
         d="m 397.78071,199.05576 q -1.08887,0 -1.50879,0.24902 -0.41992,0.24902 -0.41992,0.84961 0,0.47851 0.3125,0.76172 0.31738,0.27832 0.85937,0.27832 0.74707,0 1.19629,-0.52735 0.4541,-0.53222 0.4541,-1.41113 l 0,-0.20019 -0.89355,0 z m 1.79199,-0.3711 0,3.12012 -0.89844,0 0,-0.83008 q -0.30761,0.49805 -0.7666,0.73731 -0.45898,0.23437 -1.12305,0.23437 -0.83984,0 -1.33789,-0.46875 -0.49316,-0.47363 -0.49316,-1.26465 0,-0.92285 0.61523,-1.3916 0.62012,-0.46875 1.84571,-0.46875 l 1.25976,0 0,-0.0879 q 0,-0.62012 -0.41015,-0.95703 -0.40528,-0.3418 -1.14258,-0.3418 -0.46875,0 -0.91309,0.11231 -0.44433,0.1123 -0.85449,0.33691 l 0,-0.83008 q 0.49316,-0.19043 0.95703,-0.2832 0.46387,-0.0977 0.90332,-0.0977 1.18653,0 1.77246,0.61524 0.58594,0.61523 0.58594,1.86523 z" />
      <path
         id="path5149"
         style="font-size:10.00000095px"
         d="m 405.0268,197.16611 0,-2.95899 0.89844,0 0,7.59766 -0.89844,0 0,-0.82031 q -0.2832,0.48828 -0.71777,0.72754 -0.42969,0.23437 -1.03516,0.23437 -0.99121,0 -1.61621,-0.79102 -0.62012,-0.79101 -0.62012,-2.08007 0,-1.28907 0.62012,-2.08008 0.625,-0.79102 1.61621,-0.79102 0.60547,0 1.03516,0.23926 0.43457,0.23438 0.71777,0.72266 z m -3.06152,1.90918 q 0,0.99121 0.40527,1.55761 0.41016,0.56153 1.12305,0.56153 0.71289,0 1.12305,-0.56153 0.41015,-0.5664 0.41015,-1.55761 0,-0.99121 -0.41015,-1.55274 -0.41016,-0.5664 -1.12305,-0.5664 -0.71289,0 -1.12305,0.5664 -0.40527,0.56153 -0.40527,1.55274 z" />
      <path
         id="path5151"
         style="font-size:10.00000095px"
         d="m 411.37446,197.16611 0,-2.95899 0.89844,0 0,7.59766 -0.89844,0 0,-0.82031 q -0.2832,0.48828 -0.71777,0.72754 -0.42969,0.23437 -1.03516,0.23437 -0.99121,0 -1.61621,-0.79102 -0.62012,-0.79101 -0.62012,-2.08007 0,-1.28907 0.62012,-2.08008 0.625,-0.79102 1.61621,-0.79102 0.60547,0 1.03516,0.23926 0.43457,0.23438 0.71777,0.72266 z m -3.06152,1.90918 q 0,0.99121 0.40527,1.55761 0.41015,0.56153 1.12305,0.56153 0.71289,0 1.12304,-0.56153 0.41016,-0.5664 0.41016,-1.55761 0,-0.99121 -0.41016,-1.55274 -0.41015,-0.5664 -1.12304,-0.5664 -0.7129,0 -1.12305,0.5664 -0.40527,0.56153 -0.40527,1.55274 z" />
      <path
         id="path5153"
         style="font-size:10.00000095px"
         d="m 414.12348,196.33603 0.89844,0 0,5.46875 -0.89844,0 0,-5.46875 z m 0,-2.12891 0.89844,0 0,1.1377 -0.89844,0 0,-1.1377 z" />
      <path
         id="path5155"
         style="font-size:10.00000095px"
         d="m 417.78559,194.78329 0,1.55274 1.85059,0 0,0.69824 -1.85059,0 0,2.96875 q 0,0.66895 0.18067,0.85938 0.18554,0.19043 0.74707,0.19043 l 0.92285,0 0,0.75195 -0.92285,0 q -1.04004,0 -1.43555,-0.38574 -0.39551,-0.39063 -0.39551,-1.41602 l 0,-2.96875 -0.65918,0 0,-0.69824 0.65918,0 0,-1.55274 0.90332,0 z" />
      <path
         id="path5157"
         style="font-size:10.00000095px"
         d="m 420.8227,196.33603 0.89844,0 0,5.46875 -0.89844,0 0,-5.46875 z m 0,-2.12891 0.89844,0 0,1.1377 -0.89844,0 0,-1.1377 z" />
      <path
         id="path5159"
         style="font-size:10.00000095px"
         d="m 425.71528,196.96591 q -0.72266,0 -1.14258,0.56641 -0.41992,0.56152 -0.41992,1.54297 0,0.98144 0.41504,1.54785 0.41992,0.56152 1.14746,0.56152 0.71777,0 1.13769,-0.5664 0.41993,-0.56641 0.41993,-1.54297 0,-0.97168 -0.41993,-1.53809 -0.41992,-0.57129 -1.13769,-0.57129 z m 0,-0.76172 q 1.17187,0 1.84082,0.76172 0.66894,0.76172 0.66894,2.10938 0,1.34277 -0.66894,2.10937 -0.66895,0.76172 -1.84082,0.76172 -1.17676,0 -1.8457,-0.76172 -0.66407,-0.7666 -0.66407,-2.10937 0,-1.34766 0.66407,-2.10938 0.66894,-0.76172 1.8457,-0.76172 z" />
      <path
         id="path5161"
         style="font-size:10.00000095px"
         d="m 434.25532,198.504 0,3.30078 -0.89844,0 0,-3.27149 q 0,-0.77636 -0.30273,-1.16211 -0.30274,-0.38574 -0.90821,-0.38574 -0.72754,0 -1.14746,0.46387 -0.41992,0.46387 -0.41992,1.26465 l 0,3.09082 -0.90332,0 0,-5.46875 0.90332,0 0,0.84961 q 0.32227,-0.49317 0.75684,-0.73731 0.43945,-0.24414 1.01074,-0.24414 0.94238,0 1.42578,0.58594 0.4834,0.58105 0.4834,1.71387 z" />
      <path
         id="path5163"
         style="font-size:10.00000095px"
         d="m 438.54243,199.05576 q -1.08887,0 -1.50879,0.24902 -0.41992,0.24902 -0.41992,0.84961 0,0.47851 0.3125,0.76172 0.31738,0.27832 0.85937,0.27832 0.74707,0 1.19629,-0.52735 0.4541,-0.53222 0.4541,-1.41113 l 0,-0.20019 -0.89355,0 z m 1.79199,-0.3711 0,3.12012 -0.89844,0 0,-0.83008 q -0.30762,0.49805 -0.7666,0.73731 -0.45898,0.23437 -1.12305,0.23437 -0.83984,0 -1.33789,-0.46875 -0.49316,-0.47363 -0.49316,-1.26465 0,-0.92285 0.61523,-1.3916 0.62012,-0.46875 1.84571,-0.46875 l 1.25976,0 0,-0.0879 q 0,-0.62012 -0.41015,-0.95703 -0.40528,-0.3418 -1.14258,-0.3418 -0.46875,0 -0.91309,0.11231 -0.44433,0.1123 -0.85449,0.33691 l 0,-0.83008 q 0.49316,-0.19043 0.95703,-0.2832 0.46387,-0.0977 0.90332,-0.0977 1.18652,0 1.77246,0.61524 0.58594,0.61523 0.58594,1.86523 z" />
      <path
         id="path5165"
         style="font-size:10.00000095px"
         d="m 442.18989,194.20712 0.89844,0 0,7.59766 -0.89844,0 0,-7.59766 z" />
      <path
         id="path5167"
         style="font-size:10.00000095px"
         d="m 324.49945,209.67587 q -0.15137,-0.0879 -0.33203,-0.12695 -0.17578,-0.0439 -0.39063,-0.0439 -0.76171,0 -1.17187,0.49804 -0.40527,0.49317 -0.40527,1.4209 l 0,2.88086 -0.90332,0 0,-5.46875 0.90332,0 0,0.84961 q 0.2832,-0.49805 0.7373,-0.73731 0.4541,-0.24414 1.10352,-0.24414 0.0928,0 0.20507,0.0146 0.11231,0.01 0.24903,0.0342 l 0.005,0.92285 z" />
      <path
         id="path5169"
         style="font-size:10.00000095px"
         d="m 327.3559,209.46591 q -0.72266,0 -1.14258,0.56641 -0.41992,0.56152 -0.41992,1.54297 0,0.98144 0.41504,1.54785 0.41992,0.56152 1.14746,0.56152 0.71777,0 1.13769,-0.5664 0.41992,-0.56641 0.41992,-1.54297 0,-0.97168 -0.41992,-1.53809 -0.41992,-0.57129 -1.13769,-0.57129 z m 0,-0.76172 q 1.17187,0 1.84082,0.76172 0.66894,0.76172 0.66894,2.10938 0,1.34277 -0.66894,2.10937 -0.66895,0.76172 -1.84082,0.76172 -1.17676,0 -1.84571,-0.76172 -0.66406,-0.7666 -0.66406,-2.10937 0,-1.34766 0.66406,-2.10938 0.66895,-0.76172 1.84571,-0.76172 z" />
      <path
         id="path5171"
         style="font-size:10.00000095px"
         d="m 330.82758,208.83603 0.89843,0 1.12305,4.26758 1.11817,-4.26758 1.05957,0 1.12304,4.26758 1.11817,-4.26758 0.89843,0 -1.43066,5.46875 -1.05957,0 -1.17676,-4.48242 -1.18164,4.48242 -1.05957,0 -1.43066,-5.46875 z" />
      <path
         id="path5173"
         style="font-size:10.00000095px"
         d="m 343.01996,208.99716 0,0.84961 q -0.38086,-0.19531 -0.79101,-0.29297 -0.41016,-0.0976 -0.84961,-0.0976 -0.66895,0 -1.00586,0.20508 -0.33204,0.20507 -0.33204,0.61523 0,0.3125 0.23926,0.49316 0.23926,0.17578 0.96192,0.33692 l 0.30761,0.0684 q 0.95704,0.20508 1.35743,0.58105 0.40527,0.3711 0.40527,1.04004 0,0.76172 -0.60547,1.20606 -0.60059,0.44433 -1.65527,0.44433 -0.43946,0 -0.91797,-0.0879 -0.47363,-0.083 -1.00098,-0.25391 l 0,-0.92773 q 0.49805,0.25879 0.98145,0.39063 0.4834,0.12695 0.95703,0.12695 0.63476,0 0.97656,-0.21485 0.3418,-0.21972 0.3418,-0.61523 0,-0.36621 -0.24903,-0.56152 -0.24414,-0.19532 -1.0791,-0.37598 l -0.3125,-0.0732 q -0.83496,-0.17578 -1.20605,-0.53711 -0.3711,-0.36621 -0.3711,-1.00098 0,-0.77148 0.54688,-1.1914 0.54687,-0.41993 1.55273,-0.41993 0.49805,0 0.9375,0.0733 0.43946,0.0732 0.81055,0.21972 z" />
      <path
         id="path5175"
         style="font-size:10.00000095px"
         d="m 350.41742,211.55576 q -1.08887,0 -1.50879,0.24902 -0.41992,0.24902 -0.41992,0.84961 0,0.47852 0.3125,0.76172 0.31738,0.27832 0.85938,0.27832 0.74707,0 1.19628,-0.52735 0.45411,-0.53222 0.45411,-1.41113 l 0,-0.20019 -0.89356,0 z m 1.79199,-0.3711 0,3.12012 -0.89843,0 0,-0.83008 q -0.30762,0.49805 -0.76661,0.73731 -0.45898,0.23437 -1.12304,0.23437 -0.83985,0 -1.33789,-0.46875 -0.49317,-0.47363 -0.49317,-1.26465 0,-0.92285 0.61524,-1.3916 0.62011,-0.46875 1.8457,-0.46875 l 1.25977,0 0,-0.0879 q 0,-0.62012 -0.41016,-0.95703 -0.40527,-0.3418 -1.14258,-0.3418 -0.46875,0 -0.91308,0.11231 -0.44434,0.1123 -0.8545,0.33691 l 0,-0.83008 q 0.49317,-0.19043 0.95703,-0.2832 0.46387,-0.0977 0.90333,-0.0977 1.18652,0 1.77246,0.61524 0.58593,0.61523 0.58593,1.86523 z" />
      <path
         id="path5177"
         style="font-size:10.00000095px"
         d="m 354.95356,207.2833 0,1.55273 1.85058,0 0,0.69824 -1.85058,0 0,2.96875 q 0,0.66895 0.18066,0.85938 0.18555,0.19043 0.74707,0.19043 l 0.92285,0 0,0.75195 -0.92285,0 q -1.04004,0 -1.43555,-0.38574 -0.3955,-0.39063 -0.3955,-1.41602 l 0,-2.96875 -0.65918,0 0,-0.69824 0.65918,0 0,-1.55273 0.90332,0 z" />
      <path
         id="path5179"
         style="font-size:10.00000095px"
         d="m 362.06293,207.2833 0,1.55273 1.85059,0 0,0.69824 -1.85059,0 0,2.96875 q 0,0.66895 0.18067,0.85938 0.18554,0.19043 0.74707,0.19043 l 0.92285,0 0,0.75195 -0.92285,0 q -1.04004,0 -1.43555,-0.38574 -0.39551,-0.39063 -0.39551,-1.41602 l 0,-2.96875 -0.65918,0 0,-0.69824 0.65918,0 0,-1.55273 0.90332,0 z" />
      <path
         id="path5181"
         style="font-size:10.00000095px"
         d="m 367.21918,209.46591 q -0.72265,0 -1.14258,0.56641 -0.41992,0.56152 -0.41992,1.54297 0,0.98144 0.41504,1.54785 0.41992,0.56152 1.14746,0.56152 0.71777,0 1.1377,-0.5664 0.41992,-0.56641 0.41992,-1.54297 0,-0.97168 -0.41992,-1.53809 -0.41993,-0.57129 -1.1377,-0.57129 z m 0,-0.76172 q 1.17188,0 1.84082,0.76172 0.66895,0.76172 0.66895,2.10938 0,1.34277 -0.66895,2.10937 -0.66894,0.76172 -1.84082,0.76172 -1.17676,0 -1.8457,-0.76172 -0.66406,-0.7666 -0.66406,-2.10937 0,-1.34766 0.66406,-2.10938 0.66894,-0.76172 1.8457,-0.76172 z" />
      <path
         id="path5183"
         style="font-size:10.00000095px"
         d="m 372.08246,213.48447 0,2.90039 -0.90332,0 0,-7.54883 0.90332,0 0,0.83008 q 0.28321,-0.48828 0.71289,-0.72266 0.43457,-0.23926 1.03516,-0.23926 0.99609,0 1.61621,0.79102 0.625,0.79102 0.625,2.08008 0,1.28906 -0.625,2.08008 -0.62012,0.79101 -1.61621,0.79101 -0.60059,0 -1.03516,-0.23437 -0.42968,-0.23926 -0.71289,-0.72754 z m 3.05664,-1.90918 q 0,-0.99121 -0.41015,-1.55274 -0.40528,-0.5664 -1.11817,-0.5664 -0.71289,0 -1.12304,0.5664 -0.40528,0.56153 -0.40528,1.55274 0,0.99121 0.40528,1.55762 0.41015,0.56152 1.12304,0.56152 0.71289,0 1.11817,-0.56152 0.41015,-0.56641 0.41015,-1.55762 z" />
      <path
         id="path5185"
         style="font-size:10.00000095px"
         d="m 383.22992,211.55576 q -1.08886,0 -1.50879,0.24902 -0.41992,0.24902 -0.41992,0.84961 0,0.47852 0.3125,0.76172 0.31739,0.27832 0.85938,0.27832 0.74707,0 1.19629,-0.52735 0.4541,-0.53222 0.4541,-1.41113 l 0,-0.20019 -0.89356,0 z m 1.792,-0.3711 0,3.12012 -0.89844,0 0,-0.83008 q -0.30762,0.49805 -0.7666,0.73731 -0.45899,0.23437 -1.12305,0.23437 -0.83984,0 -1.33789,-0.46875 -0.49317,-0.47363 -0.49317,-1.26465 0,-0.92285 0.61524,-1.3916 0.62012,-0.46875 1.8457,-0.46875 l 1.25977,0 0,-0.0879 q 0,-0.62012 -0.41016,-0.95703 -0.40527,-0.3418 -1.14258,-0.3418 -0.46875,0 -0.91308,0.11231 -0.44434,0.1123 -0.85449,0.33691 l 0,-0.83008 q 0.49316,-0.19043 0.95703,-0.2832 0.46386,-0.0977 0.90332,-0.0977 1.18652,0 1.77246,0.61524 0.58594,0.61523 0.58594,1.86523 z" />
      <path
         id="path5187"
         style="font-size:10.00000095px"
         d="m 391.42329,211.004 0,3.30078 -0.89844,0 0,-3.27148 q 0,-0.77637 -0.30274,-1.16211 -0.30273,-0.38575 -0.9082,-0.38575 -0.72754,0 -1.14746,0.46387 -0.41992,0.46387 -0.41992,1.26465 l 0,3.09082 -0.90332,0 0,-5.46875 0.90332,0 0,0.84961 q 0.32226,-0.49316 0.75683,-0.73731 0.43946,-0.24414 1.01075,-0.24414 0.94238,0 1.42578,0.58594 0.4834,0.58106 0.4834,1.71387 z" />
      <path
         id="path5189"
         style="font-size:10.00000095px"
         d="m 396.82368,209.66611 0,-2.95899 0.89844,0 0,7.59766 -0.89844,0 0,-0.82031 q -0.28321,0.48828 -0.71778,0.72754 -0.42968,0.23437 -1.03515,0.23437 -0.99121,0 -1.61621,-0.79101 -0.62012,-0.79102 -0.62012,-2.08008 0,-1.28906 0.62012,-2.08008 0.625,-0.79102 1.61621,-0.79102 0.60547,0 1.03515,0.23926 0.43457,0.23438 0.71778,0.72266 z m -3.06153,1.90918 q 0,0.99121 0.40528,1.55762 0.41015,0.56152 1.12304,0.56152 0.71289,0 1.12305,-0.56152 0.41016,-0.56641 0.41016,-1.55762 0,-0.99121 -0.41016,-1.55274 -0.41016,-0.5664 -1.12305,-0.5664 -0.71289,0 -1.12304,0.5664 -0.40528,0.56153 -0.40528,1.55274 z" />
      <path
         id="path5191"
         style="font-size:10.00000095px"
         d="m 406.68208,211.57529 q 0,-0.99121 -0.41016,-1.55274 -0.40527,-0.5664 -1.11816,-0.5664 -0.7129,0 -1.12305,0.5664 -0.40527,0.56153 -0.40527,1.55274 0,0.99121 0.40527,1.55762 0.41015,0.56152 1.12305,0.56152 0.71289,0 1.11816,-0.56152 0.41016,-0.56641 0.41016,-1.55762 z m -3.05664,-1.90918 q 0.2832,-0.48828 0.71289,-0.72266 0.43457,-0.23926 1.03515,-0.23926 0.9961,0 1.61621,0.79102 0.625,0.79102 0.625,2.08008 0,1.28906 -0.625,2.08008 -0.62011,0.79101 -1.61621,0.79101 -0.60058,0 -1.03515,-0.23437 -0.42969,-0.23926 -0.71289,-0.72754 l 0,0.82031 -0.90333,0 0,-7.59766 0.90333,0 0,2.95899 z" />
      <path
         id="path5193"
         style="font-size:10.00000095px"
         d="m 411.22309,209.46591 q -0.72265,0 -1.14258,0.56641 -0.41992,0.56152 -0.41992,1.54297 0,0.98144 0.41504,1.54785 0.41992,0.56152 1.14746,0.56152 0.71777,0 1.1377,-0.5664 0.41992,-0.56641 0.41992,-1.54297 0,-0.97168 -0.41992,-1.53809 -0.41993,-0.57129 -1.1377,-0.57129 z m 0,-0.76172 q 1.17188,0 1.84082,0.76172 0.66895,0.76172 0.66895,2.10938 0,1.34277 -0.66895,2.10937 -0.66894,0.76172 -1.84082,0.76172 -1.17676,0 -1.8457,-0.76172 -0.66406,-0.7666 -0.66406,-2.10937 0,-1.34766 0.66406,-2.10938 0.66894,-0.76172 1.8457,-0.76172 z" />
      <path
         id="path5195"
         style="font-size:10.00000095px"
         d="m 416.1059,207.2833 0,1.55273 1.85059,0 0,0.69824 -1.85059,0 0,2.96875 q 0,0.66895 0.18067,0.85938 0.18554,0.19043 0.74707,0.19043 l 0.92285,0 0,0.75195 -0.92285,0 q -1.04004,0 -1.43555,-0.38574 -0.39551,-0.39063 -0.39551,-1.41602 l 0,-2.96875 -0.65918,0 0,-0.69824 0.65918,0 0,-1.55273 0.90332,0 z" />
      <path
         id="path5197"
         style="font-size:10.00000095px"
         d="m 420.03169,207.2833 0,1.55273 1.85058,0 0,0.69824 -1.85058,0 0,2.96875 q 0,0.66895 0.18066,0.85938 0.18555,0.19043 0.74707,0.19043 l 0.92285,0 0,0.75195 -0.92285,0 q -1.04004,0 -1.43555,-0.38574 -0.39551,-0.39063 -0.39551,-1.41602 l 0,-2.96875 -0.65918,0 0,-0.69824 0.65918,0 0,-1.55273 0.90333,0 z" />
      <path
         id="path5199"
         style="font-size:10.00000095px"
         d="m 425.18794,209.46591 q -0.72266,0 -1.14258,0.56641 -0.41992,0.56152 -0.41992,1.54297 0,0.98144 0.41503,1.54785 0.41993,0.56152 1.14747,0.56152 0.71777,0 1.13769,-0.5664 0.41992,-0.56641 0.41992,-1.54297 0,-0.97168 -0.41992,-1.53809 -0.41992,-0.57129 -1.13769,-0.57129 z m 0,-0.76172 q 1.17187,0 1.84082,0.76172 0.66894,0.76172 0.66894,2.10938 0,1.34277 -0.66894,2.10937 -0.66895,0.76172 -1.84082,0.76172 -1.17676,0 -1.84571,-0.76172 -0.66406,-0.7666 -0.66406,-2.10937 0,-1.34766 0.66406,-2.10938 0.66895,-0.76172 1.84571,-0.76172 z" />
      <path
         id="path5201"
         style="font-size:10.00000095px"
         d="m 433.72797,211.004 0,3.30078 -0.89843,0 0,-3.27148 q 0,-0.77637 -0.30274,-1.16211 -0.30273,-0.38575 -0.9082,-0.38575 -0.72754,0 -1.14746,0.46387 -0.41992,0.46387 -0.41992,1.26465 l 0,3.09082 -0.90332,0 0,-5.46875 0.90332,0 0,0.84961 q 0.32226,-0.49316 0.75683,-0.73731 0.43946,-0.24414 1.01074,-0.24414 0.94239,0 1.42579,0.58594 0.48339,0.58106 0.48339,1.71387 z" />
      <path
         id="path5203"
         style="font-size:10.00000095px"
         d="m 323.44965,221.96591 q -0.72266,0 -1.14258,0.56641 -0.41992,0.56152 -0.41992,1.54297 0,0.98144 0.41504,1.54785 0.41992,0.56152 1.14746,0.56152 0.71777,0 1.13769,-0.5664 0.41992,-0.56641 0.41992,-1.54297 0,-0.97168 -0.41992,-1.53809 -0.41992,-0.57129 -1.13769,-0.57129 z m 0,-0.76172 q 1.17187,0 1.84082,0.76172 0.66894,0.76172 0.66894,2.10938 0,1.34277 -0.66894,2.10937 -0.66895,0.76172 -1.84082,0.76172 -1.17676,0 -1.84571,-0.76172 -0.66406,-0.7666 -0.66406,-2.10937 0,-1.34766 0.66406,-2.10938 0.66895,-0.76172 1.84571,-0.76172 z" />
      <path
         id="path5205"
         style="font-size:10.00000095px"
         d="m 330.21234,219.20712 0,0.74707 -0.85937,0 q -0.4834,0 -0.67383,0.19532 -0.18555,0.19531 -0.18555,0.70312 l 0,0.4834 1.47949,0 0,0.69824 -1.47949,0 0,4.77051 -0.90332,0 0,-4.77051 -0.85937,0 0,-0.69824 0.85937,0 0,-0.38086 q 0,-0.91308 0.42481,-1.32812 0.4248,-0.41993 1.34765,-0.41993 l 0.84961,0 z" />
      <path
         id="path5207"
         style="font-size:10.00000095px"
         d="m 335.03168,219.7833 0,1.55273 1.85058,0 0,0.69824 -1.85058,0 0,2.96875 q 0,0.66895 0.18066,0.85938 0.18555,0.19043 0.74707,0.19043 l 0.92285,0 0,0.75195 -0.92285,0 q -1.04004,0 -1.43554,-0.38574 -0.39551,-0.39063 -0.39551,-1.41602 l 0,-2.96875 -0.65918,0 0,-0.69824 0.65918,0 0,-1.55273 0.90332,0 z" />
      <path
         id="path5209"
         style="font-size:10.00000095px"
         d="m 342.61469,223.504 0,3.30078 -0.89844,0 0,-3.27148 q 0,-0.77637 -0.30273,-1.16211 -0.30274,-0.38574 -0.90821,-0.38574 -0.72754,0 -1.14746,0.46386 -0.41992,0.46387 -0.41992,1.26465 l 0,3.09082 -0.90332,0 0,-7.59766 0.90332,0 0,2.97852 q 0.32226,-0.49316 0.75684,-0.7373 0.43945,-0.24415 1.01074,-0.24415 0.94238,0 1.42578,0.58594 0.4834,0.58106 0.4834,1.71387 z" />
      <path
         id="path5211"
         style="font-size:10.00000095px"
         d="m 349.09418,223.8458 0,0.43945 -4.13086,0 q 0.0586,0.92773 0.55664,1.41602 0.50293,0.48339 1.39649,0.48339 0.51757,0 1.00097,-0.12695 0.48828,-0.12695 0.9668,-0.38086 l 0,0.84961 q -0.4834,0.20508 -0.99121,0.3125 -0.50781,0.10742 -1.03028,0.10742 -1.30859,0 -2.07519,-0.76172 -0.76172,-0.76171 -0.76172,-2.06054 0,-1.34278 0.72266,-2.12891 0.72754,-0.79102 1.958,-0.79102 1.10352,0 1.74317,0.7129 0.64453,0.708 0.64453,1.92871 z m -0.89844,-0.26368 q -0.01,-0.7373 -0.41504,-1.17675 -0.40039,-0.43946 -1.06445,-0.43946 -0.75195,0 -1.20606,0.42481 -0.44921,0.4248 -0.51757,1.19629 l 3.20312,-0.005 z" />
      <path
         id="path5213"
         style="font-size:10.00000095px"
         d="m 353.75238,219.20712 0.89844,0 0,7.59766 -0.89844,0 0,-7.59766 z" />
      <path
         id="path5215"
         style="font-size:10.00000095px"
         d="m 358.64496,221.96591 q -0.72265,0 -1.14258,0.56641 -0.41992,0.56152 -0.41992,1.54297 0,0.98144 0.41504,1.54785 0.41992,0.56152 1.14746,0.56152 0.71778,0 1.1377,-0.5664 0.41992,-0.56641 0.41992,-1.54297 0,-0.97168 -0.41992,-1.53809 -0.41992,-0.57129 -1.1377,-0.57129 z m 0,-0.76172 q 1.17188,0 1.84082,0.76172 0.66895,0.76172 0.66895,2.10938 0,1.34277 -0.66895,2.10937 -0.66894,0.76172 -1.84082,0.76172 -1.17676,0 -1.8457,-0.76172 -0.66406,-0.7666 -0.66406,-2.10937 0,-1.34766 0.66406,-2.10938 0.66894,-0.76172 1.8457,-0.76172 z" />
      <path
         id="path5217"
         style="font-size:10.00000095px"
         d="m 366.57465,221.54599 0,0.83985 q -0.38086,-0.20997 -0.7666,-0.3125 -0.38086,-0.10743 -0.77149,-0.10743 -0.87402,0 -1.35742,0.55664 -0.4834,0.55176 -0.4834,1.55274 0,1.00098 0.4834,1.55762 0.4834,0.55175 1.35742,0.55175 0.39063,0 0.77149,-0.10253 0.38574,-0.10743 0.7666,-0.31739 l 0,0.83008 q -0.37598,0.17578 -0.78125,0.26367 -0.40039,0.0879 -0.85449,0.0879 -1.23535,0 -1.96289,-0.77636 -0.72754,-0.77637 -0.72754,-2.09473 0,-1.33789 0.73242,-2.10449 0.7373,-0.76661 2.0166,-0.76661 0.41504,0 0.81055,0.0879 0.39551,0.083 0.7666,0.2539 z" />
      <path
         id="path5219"
         style="font-size:10.00000095px"
         d="m 370.63227,224.05576 q -1.08887,0 -1.50879,0.24902 -0.41992,0.24902 -0.41992,0.84961 0,0.47852 0.3125,0.76172 0.31738,0.27832 0.85937,0.27832 0.74707,0 1.19629,-0.52734 0.4541,-0.53223 0.4541,-1.41114 l 0,-0.20019 -0.89355,0 z m 1.79199,-0.3711 0,3.12012 -0.89844,0 0,-0.83008 q -0.30762,0.49805 -0.7666,0.73731 -0.45898,0.23437 -1.12305,0.23437 -0.83984,0 -1.33789,-0.46875 -0.49316,-0.47363 -0.49316,-1.26465 0,-0.92285 0.61523,-1.3916 0.62012,-0.46875 1.84571,-0.46875 l 1.25976,0 0,-0.0879 q 0,-0.62012 -0.41015,-0.95703 -0.40528,-0.3418 -1.14258,-0.3418 -0.46875,0 -0.91309,0.11231 -0.44433,0.1123 -0.85449,0.33691 l 0,-0.83008 q 0.49316,-0.19043 0.95703,-0.2832 0.46387,-0.0977 0.90332,-0.0977 1.18652,0 1.77246,0.61524 0.58594,0.61523 0.58594,1.86523 z" />
      <path
         id="path5221"
         style="font-size:10.00000095px"
         d="m 374.27973,219.20712 0.89844,0 0,7.59766 -0.89844,0 0,-7.59766 z" />
      <path
         id="path5223"
         style="font-size:10.00000095px"
         d="m 383.83539,224.00693 q 0,-0.97656 -0.40527,-1.51367 -0.40039,-0.53711 -1.12793,-0.53711 -0.72266,0 -1.12793,0.53711 -0.40039,0.53711 -0.40039,1.51367 0,0.97168 0.40039,1.50879 0.40527,0.53711 1.12793,0.53711 0.72754,0 1.12793,-0.53711 0.40527,-0.53711 0.40527,-1.50879 z m 0.89844,2.11914 q 0,1.39648 -0.62012,2.0752 -0.62011,0.68359 -1.89941,0.68359 -0.47363,0 -0.89356,-0.0732 -0.41992,-0.0684 -0.81543,-0.21485 l 0,-0.87402 q 0.39551,0.21484 0.78125,0.31738 0.38575,0.10254 0.78614,0.10254 0.88379,0 1.32324,-0.46387 0.43945,-0.45898 0.43945,-1.3916 l 0,-0.44433 q -0.27832,0.4834 -0.71289,0.72265 -0.43457,0.23926 -1.04004,0.23926 -1.00586,0 -1.62109,-0.7666 -0.61524,-0.7666 -0.61524,-2.03125 0,-1.26953 0.61524,-2.03613 0.61523,-0.76661 1.62109,-0.76661 0.60547,0 1.04004,0.23926 0.43457,0.23926 0.71289,0.72266 l 0,-0.83008 0.89844,0 0,4.79004 z" />
      <path
         id="path5225"
         style="font-size:10.00000095px"
         d="m 389.75336,222.17587 q -0.15136,-0.0879 -0.33203,-0.12695 -0.17578,-0.0439 -0.39062,-0.0439 -0.76172,0 -1.17188,0.49804 -0.40527,0.49317 -0.40527,1.4209 l 0,2.88086 -0.90332,0 0,-5.46875 0.90332,0 0,0.84961 q 0.2832,-0.49805 0.7373,-0.7373 0.45411,-0.24415 1.10352,-0.24415 0.0928,0 0.20508,0.0146 0.1123,0.01 0.24902,0.0342 l 0.005,0.92285 z" />
      <path
         id="path5227"
         style="font-size:10.00000095px"
         d="m 390.70551,221.33603 0.89844,0 0,5.46875 -0.89844,0 0,-5.46875 z m 0,-2.12891 0.89844,0 0,1.1377 -0.89844,0 0,-1.1377 z" />
      <path
         id="path5229"
         style="font-size:10.00000095px"
         d="m 397.07758,222.16611 0,-2.95899 0.89844,0 0,7.59766 -0.89844,0 0,-0.82031 q -0.2832,0.48828 -0.71777,0.72754 -0.42969,0.23437 -1.03516,0.23437 -0.99121,0 -1.61621,-0.79101 -0.62011,-0.79102 -0.62011,-2.08008 0,-1.28906 0.62011,-2.08008 0.625,-0.79102 1.61621,-0.79102 0.60547,0 1.03516,0.23926 0.43457,0.23438 0.71777,0.72266 z m -3.06152,1.90918 q 0,0.99121 0.40527,1.55762 0.41016,0.56152 1.12305,0.56152 0.71289,0 1.12305,-0.56152 0.41015,-0.56641 0.41015,-1.55762 0,-0.99121 -0.41015,-1.55274 -0.41016,-0.5664 -1.12305,-0.5664 -0.71289,0 -1.12305,0.5664 -0.40527,0.56153 -0.40527,1.55274 z" />
    </g>
    <g
       id="text4867"
       style="font-style:normal;font-weight:normal;font-size:12.5px;line-height:125%;font-family:sans-serif;letter-spacing:0px;word-spacing:0px;fill:#000000;fill-opacity:1;stroke:none;stroke-width:1px;stroke-linecap:butt;stroke-linejoin:miter;stroke-opacity:1">
      <path
         id="path5232"
         style="font-size:10.00000095px"
         d="m 313.71387,268.85324 4.18945,0 0,0.83008 -3.20312,0 0,2.14844 2.89062,0 0,0.83007 -2.89062,0 0,3.48145 -0.98633,0 0,-7.29004 z" />
      <path
         id="path5234"
         style="font-size:10.00000095px"
         d="m 318.71387,270.67453 0.89844,0 0,5.46875 -0.89844,0 0,-5.46875 z m 0,-2.12891 0.89844,0 0,1.1377 -0.89844,0 0,-1.1377 z" />
      <path
         id="path5236"
         style="font-size:10.00000095px"
         d="m 324.65625,271.51437 q -0.15137,-0.0879 -0.33203,-0.12695 -0.17578,-0.0439 -0.39062,-0.0439 -0.76172,0 -1.17188,0.49805 -0.40527,0.49317 -0.40527,1.4209 l 0,2.88086 -0.90332,0 0,-5.46875 0.90332,0 0,0.84961 q 0.2832,-0.49805 0.7373,-0.73731 0.4541,-0.24414 1.10352,-0.24414 0.0928,0 0.20508,0.0147 0.1123,0.01 0.24902,0.0342 l 0.005,0.92285 z" />
      <path
         id="path5238"
         style="font-size:10.00000095px"
         d="m 329.09473,270.83566 0,0.84961 q -0.38086,-0.19531 -0.79102,-0.29297 -0.41015,-0.0976 -0.84961,-0.0976 -0.66894,0 -1.00586,0.20507 -0.33203,0.20508 -0.33203,0.61524 0,0.3125 0.23926,0.49316 0.23926,0.17578 0.96191,0.33692 l 0.30762,0.0684 q 0.95703,0.20508 1.35742,0.58105 0.40528,0.3711 0.40528,1.04004 0,0.76172 -0.60547,1.20606 -0.60059,0.44433 -1.65528,0.44433 -0.43945,0 -0.91796,-0.0879 -0.47364,-0.083 -1.00098,-0.25391 l 0,-0.92773 q 0.49805,0.25879 0.98144,0.39063 0.4834,0.12695 0.95704,0.12695 0.63476,0 0.97656,-0.21485 0.3418,-0.21972 0.3418,-0.61523 0,-0.36621 -0.24903,-0.56152 -0.24414,-0.19532 -1.0791,-0.37598 l -0.3125,-0.0732 q -0.83496,-0.17578 -1.20605,-0.53711 -0.3711,-0.36621 -0.3711,-1.00098 0,-0.77148 0.54688,-1.1914 0.54687,-0.41993 1.55273,-0.41993 0.49805,0 0.9375,0.0733 0.43945,0.0732 0.81055,0.21972 z" />
      <path
         id="path5240"
         style="font-size:10.00000095px"
         d="m 331.71192,269.12179 0,1.55274 1.85058,0 0,0.69824 -1.85058,0 0,2.96875 q 0,0.66895 0.18066,0.85938 0.18555,0.19043 0.74707,0.19043 l 0.92285,0 0,0.75195 -0.92285,0 q -1.04004,0 -1.43555,-0.38574 -0.3955,-0.39063 -0.3955,-1.41602 l 0,-2.96875 -0.65918,0 0,-0.69824 0.65918,0 0,-1.55274 0.90332,0 z" />
      <path
         id="path5242"
         style="font-size:10.00000095px"
         d="m 340.41797,273.39426 q -1.08887,0 -1.50879,0.24902 -0.41992,0.24902 -0.41992,0.84961 0,0.47851 0.3125,0.76172 0.31738,0.27832 0.85937,0.27832 0.74708,0 1.19629,-0.52735 0.45411,-0.53222 0.45411,-1.41113 l 0,-0.20019 -0.89356,0 z m 1.79199,-0.3711 0,3.12012 -0.89843,0 0,-0.83008 q -0.30762,0.49805 -0.76661,0.73731 -0.45898,0.23437 -1.12304,0.23437 -0.83985,0 -1.33789,-0.46875 -0.49317,-0.47363 -0.49317,-1.26465 0,-0.92285 0.61524,-1.3916 0.62011,-0.46875 1.8457,-0.46875 l 1.25977,0 0,-0.0879 q 0,-0.62012 -0.41016,-0.95703 -0.40527,-0.3418 -1.14258,-0.3418 -0.46875,0 -0.91308,0.11231 -0.44434,0.1123 -0.8545,0.33691 l 0,-0.83008 q 0.49317,-0.19043 0.95703,-0.2832 0.46387,-0.0977 0.90332,-0.0977 1.18653,0 1.77247,0.61524 0.58593,0.61523 0.58593,1.86523 z" />
      <path
         id="path5244"
         style="font-size:10.00000095px"
         d="m 348.00098,270.88449 0,0.83984 q -0.38086,-0.20996 -0.7666,-0.3125 -0.38086,-0.10742 -0.77149,-0.10742 -0.87402,0 -1.35742,0.55664 -0.4834,0.55176 -0.4834,1.55274 0,1.00097 0.4834,1.55761 0.4834,0.55176 1.35742,0.55176 0.39063,0 0.77149,-0.10254 0.38574,-0.10742 0.7666,-0.31738 l 0,0.83008 q -0.37598,0.17578 -0.78125,0.26367 -0.40039,0.0879 -0.85449,0.0879 -1.23535,0 -1.96289,-0.77637 -0.72754,-0.77636 -0.72754,-2.09472 0,-1.33789 0.73242,-2.10449 0.73731,-0.76661 2.0166,-0.76661 0.41504,0 0.81055,0.0879 0.39551,0.083 0.7666,0.25391 z" />
      <path
         id="path5246"
         style="font-size:10.00000095px"
         d="m 350.46192,269.12179 0,1.55274 1.85058,0 0,0.69824 -1.85058,0 0,2.96875 q 0,0.66895 0.18066,0.85938 0.18555,0.19043 0.74707,0.19043 l 0.92285,0 0,0.75195 -0.92285,0 q -1.04004,0 -1.43554,-0.38574 -0.39551,-0.39063 -0.39551,-1.41602 l 0,-2.96875 -0.65918,0 0,-0.69824 0.65918,0 0,-1.55274 0.90332,0 z" />
      <path
         id="path5248"
         style="font-size:10.00000095px"
         d="m 353.40625,273.98508 0,-3.31055 0.89844,0 0,3.27637 q 0,0.77636 0.30274,1.16699 0.30273,0.38574 0.9082,0.38574 0.72754,0 1.14746,-0.46387 0.4248,-0.46386 0.4248,-1.26464 l 0,-3.10059 0.89844,0 0,5.46875 -0.89844,0 0,-0.83984 q -0.32714,0.49804 -0.76171,0.74218 -0.42969,0.23926 -1.00098,0.23926 -0.94238,0 -1.43066,-0.58594 -0.48829,-0.58593 -0.48829,-1.71386 z m 2.26075,-3.44239 0,0 z" />
      <path
         id="path5250"
         style="font-size:10.00000095px"
         d="m 362.33204,273.39426 q -1.08887,0 -1.50879,0.24902 -0.41993,0.24902 -0.41993,0.84961 0,0.47851 0.3125,0.76172 0.31739,0.27832 0.85938,0.27832 0.74707,0 1.19629,-0.52735 0.4541,-0.53222 0.4541,-1.41113 l 0,-0.20019 -0.89355,0 z m 1.79199,-0.3711 0,3.12012 -0.89844,0 0,-0.83008 q -0.30762,0.49805 -0.7666,0.73731 -0.45899,0.23437 -1.12305,0.23437 -0.83984,0 -1.33789,-0.46875 -0.49316,-0.47363 -0.49316,-1.26465 0,-0.92285 0.61523,-1.3916 0.62012,-0.46875 1.8457,-0.46875 l 1.25977,0 0,-0.0879 q 0,-0.62012 -0.41016,-0.95703 -0.40527,-0.3418 -1.14257,-0.3418 -0.46875,0 -0.91309,0.11231 -0.44434,0.1123 -0.85449,0.33691 l 0,-0.83008 q 0.49316,-0.19043 0.95703,-0.2832 0.46387,-0.0977 0.90332,-0.0977 1.18652,0 1.77246,0.61524 0.58594,0.61523 0.58594,1.86523 z" />
      <path
         id="path5252"
         style="font-size:10.00000095px"
         d="m 365.9795,268.54562 0.89843,0 0,7.59766 -0.89843,0 0,-7.59766 z" />
      <path
         id="path5254"
         style="font-size:10.00000095px"
         d="m 375.10547,271.51437 q -0.15136,-0.0879 -0.33203,-0.12695 -0.17578,-0.0439 -0.39062,-0.0439 -0.76172,0 -1.17188,0.49805 -0.40527,0.49317 -0.40527,1.4209 l 0,2.88086 -0.90332,0 0,-5.46875 0.90332,0 0,0.84961 q 0.2832,-0.49805 0.7373,-0.73731 0.4541,-0.24414 1.10352,-0.24414 0.0928,0 0.20508,0.0147 0.1123,0.01 0.24902,0.0342 l 0.005,0.92285 z" />
      <path
         id="path5256"
         style="font-size:10.00000095px"
         d="m 377.96192,271.30441 q -0.72265,0 -1.14258,0.56641 -0.41992,0.56152 -0.41992,1.54297 0,0.98144 0.41504,1.54785 0.41992,0.56152 1.14746,0.56152 0.71778,0 1.1377,-0.5664 0.41992,-0.56641 0.41992,-1.54297 0,-0.97168 -0.41992,-1.53809 -0.41992,-0.57129 -1.1377,-0.57129 z m 0,-0.76172 q 1.17188,0 1.84082,0.76172 0.66895,0.76172 0.66895,2.10938 0,1.34277 -0.66895,2.10937 -0.66894,0.76172 -1.84082,0.76172 -1.17676,0 -1.8457,-0.76172 -0.66406,-0.7666 -0.66406,-2.10937 0,-1.34766 0.66406,-2.10938 0.66894,-0.76172 1.8457,-0.76172 z" />
      <path
         id="path5258"
         style="font-size:10.00000095px"
         d="m 381.4336,270.67453 0.89844,0 1.12305,4.26758 1.11816,-4.26758 1.05957,0 1.12305,4.26758 1.11816,-4.26758 0.89844,0 -1.43066,5.46875 -1.05958,0 -1.17675,-4.48242 -1.18164,4.48242 -1.05957,0 -1.43067,-5.46875 z" />
      <path
         id="path5260"
         style="font-size:10.00000095px"
         d="m 395.44239,271.30441 q -0.72266,0 -1.14258,0.56641 -0.41992,0.56152 -0.41992,1.54297 0,0.98144 0.41504,1.54785 0.41992,0.56152 1.14746,0.56152 0.71777,0 1.1377,-0.5664 0.41992,-0.56641 0.41992,-1.54297 0,-0.97168 -0.41992,-1.53809 -0.41993,-0.57129 -1.1377,-0.57129 z m 0,-0.76172 q 1.17188,0 1.84082,0.76172 0.66895,0.76172 0.66895,2.10938 0,1.34277 -0.66895,2.10937 -0.66894,0.76172 -1.84082,0.76172 -1.17676,0 -1.8457,-0.76172 -0.66407,-0.7666 -0.66407,-2.10937 0,-1.34766 0.66407,-2.10938 0.66894,-0.76172 1.8457,-0.76172 z" />
      <path
         id="path5262"
         style="font-size:10.00000095px"
         d="m 402.20509,268.54562 0,0.74707 -0.85938,0 q -0.4834,0 -0.67383,0.19532 -0.18554,0.19531 -0.18554,0.70312 l 0,0.4834 1.47949,0 0,0.69824 -1.47949,0 0,4.77051 -0.90332,0 0,-4.77051 -0.85938,0 0,-0.69824 0.85938,0 0,-0.38086 q 0,-0.91309 0.4248,-1.32813 0.42481,-0.41992 1.34766,-0.41992 l 0.84961,0 z" />
      <path
         id="path5264"
         style="font-size:10.00000095px"
         d="m 409.63184,272.72531 q 0.31739,0.10742 0.61524,0.45899 0.30273,0.35156 0.60547,0.96679 l 1.00097,1.99219 -1.05957,0 -0.93261,-1.87012 q -0.36133,-0.73242 -0.70313,-0.97168 -0.33691,-0.23925 -0.92285,-0.23925 l -1.07422,0 0,3.08105 -0.98633,0 0,-7.29004 2.22657,0 q 1.25,0 1.86523,0.52246 0.61523,0.52246 0.61523,1.57715 0,0.68848 -0.32226,1.14258 -0.31738,0.4541 -0.92774,0.62988 z m -2.4707,-3.06152 0,2.58789 1.24024,0 q 0.71289,0 1.07421,-0.32715 0.36621,-0.33203 0.36621,-0.97168 0,-0.63965 -0.36621,-0.96191 -0.36132,-0.32715 -1.07421,-0.32715 l -1.24024,0 z" />
      <path
         id="path5266"
         style="font-size:10.00000095px"
         d="m 415.35938,273.39426 q -1.08886,0 -1.50879,0.24902 -0.41992,0.24902 -0.41992,0.84961 0,0.47851 0.3125,0.76172 0.31738,0.27832 0.85938,0.27832 0.74707,0 1.19629,-0.52735 0.4541,-0.53222 0.4541,-1.41113 l 0,-0.20019 -0.89356,0 z m 1.792,-0.3711 0,3.12012 -0.89844,0 0,-0.83008 q -0.30762,0.49805 -0.7666,0.73731 -0.45899,0.23437 -1.12305,0.23437 -0.83984,0 -1.33789,-0.46875 -0.49317,-0.47363 -0.49317,-1.26465 0,-0.92285 0.61524,-1.3916 0.62012,-0.46875 1.8457,-0.46875 l 1.25977,0 0,-0.0879 q 0,-0.62012 -0.41016,-0.95703 -0.40527,-0.3418 -1.14258,-0.3418 -0.46875,0 -0.91308,0.11231 -0.44434,0.1123 -0.8545,0.33691 l 0,-0.83008 q 0.49317,-0.19043 0.95704,-0.2832 0.46386,-0.0977 0.90332,-0.0977 1.18652,0 1.77246,0.61524 0.58594,0.61523 0.58594,1.86523 z" />
      <path
         id="path5268"
         style="font-size:10.00000095px"
         d="m 423.55274,272.8425 0,3.30078 -0.89844,0 0,-3.27148 q 0,-0.77637 -0.30273,-1.16211 -0.30273,-0.38575 -0.9082,-0.38575 -0.72754,0 -1.14746,0.46387 -0.41993,0.46387 -0.41993,1.26465 l 0,3.09082 -0.90332,0 0,-5.46875 0.90332,0 0,0.84961 q 0.32227,-0.49317 0.75684,-0.73731 0.43945,-0.24414 1.01074,-0.24414 0.94239,0 1.42578,0.58594 0.4834,0.58106 0.4834,1.71387 z" />
      <path
         id="path5270"
         style="font-size:10.00000095px"
         d="m 425.32032,268.54562 0.90332,0 0,4.48731 2.68066,-2.3584 1.14747,0 -2.90039,2.55859 3.02246,2.91016 -1.17188,0 -2.77832,-2.6709 0,2.6709 -0.90332,0 0,-7.59766 z" />
      <path
         id="path5272"
         style="font-size:10.00000095px"
         d="m 317.84473,284.24387 -1.4209,0 -0.41016,1.63086 1.43067,0 0.40039,-1.63086 z m -0.73242,-2.77833 -0.50782,2.02637 1.42578,0 0.5127,-2.02637 0.78125,0 -0.50293,2.02637 1.52344,0 0,0.75196 -1.71387,0 -0.40039,1.63086 1.55273,0 0,0.74707 -1.74316,0 -0.50781,2.02148 -0.78125,0 0.50293,-2.02148 -1.43067,0 -0.50293,2.02148 -0.78613,0 0.50781,-2.02148 -1.53808,0 0,-0.74707 1.71875,0 0.41015,-1.63086 -1.57226,0 0,-0.75196 1.76269,0 0.49805,-2.02637 0.79102,0 z" />
      <path
         id="path5274"
         style="font-size:10.00000095px"
         d="m 323.03027,287.8132 3.44239,0 0,0.83008 -4.62891,0 0,-0.83008 q 0.56152,-0.58105 1.52832,-1.55762 0.97168,-0.98144 1.2207,-1.26464 0.47364,-0.53223 0.65918,-0.89844 0.19043,-0.3711 0.19043,-0.72754 0,-0.58106 -0.41015,-0.94727 -0.40528,-0.36621 -1.05957,-0.36621 -0.46387,0 -0.98145,0.16114 -0.51269,0.16113 -1.09863,0.48828 l 0,-0.9961 q 0.5957,-0.23926 1.11328,-0.36133 0.51758,-0.12207 0.94727,-0.12207 1.13281,0 1.80664,0.56641 0.67383,0.56641 0.67383,1.51367 0,0.44922 -0.1709,0.85449 -0.16602,0.4004 -0.61035,0.94727 -0.12208,0.1416 -0.77637,0.82031 -0.6543,0.67383 -1.84571,1.88965 z" />
      <path
         id="path5276"
         style="font-size:10.00000095px"
         d="m 331.60449,283.17453 0.89844,0 0,5.46875 -0.89844,0 0,-5.46875 z m 0,-2.12891 0.89844,0 0,1.1377 -0.89844,0 0,-1.1377 z" />
      <path
         id="path5278"
         style="font-size:10.00000095px"
         d="m 337.86426,283.33566 0,0.84961 q -0.38086,-0.19531 -0.79102,-0.29297 -0.41015,-0.0976 -0.84961,-0.0976 -0.66894,0 -1.00585,0.20507 -0.33204,0.20508 -0.33204,0.61524 0,0.3125 0.23926,0.49316 0.23926,0.17578 0.96192,0.33692 l 0.30761,0.0684 q 0.95703,0.20508 1.35743,0.58105 0.40527,0.3711 0.40527,1.04004 0,0.76172 -0.60547,1.20606 -0.60059,0.44433 -1.65527,0.44433 -0.43946,0 -0.91797,-0.0879 -0.47364,-0.083 -1.00098,-0.25391 l 0,-0.92773 q 0.49805,0.25879 0.98145,0.39063 0.48339,0.12695 0.95703,0.12695 0.63476,0 0.97656,-0.21485 0.3418,-0.21972 0.3418,-0.61523 0,-0.36621 -0.24903,-0.56152 -0.24414,-0.19532 -1.0791,-0.37598 l -0.3125,-0.0732 q -0.83496,-0.17578 -1.20605,-0.53711 -0.3711,-0.36621 -0.3711,-1.00098 0,-0.77148 0.54688,-1.1914 0.54687,-0.41993 1.55273,-0.41993 0.49805,0 0.9375,0.0733 0.43946,0.0732 0.81055,0.21972 z" />
      <path
         id="path5280"
         style="font-size:10.00000095px"
         d="m 346.71192,283.38449 0,0.83984 q -0.38086,-0.20996 -0.76661,-0.3125 -0.38085,-0.10742 -0.77148,-0.10742 -0.87402,0 -1.35742,0.55664 -0.4834,0.55176 -0.4834,1.55274 0,1.00097 0.4834,1.55761 0.4834,0.55176 1.35742,0.55176 0.39063,0 0.77148,-0.10254 0.38575,-0.10742 0.76661,-0.31738 l 0,0.83008 q -0.37598,0.17578 -0.78125,0.26367 -0.40039,0.0879 -0.8545,0.0879 -1.23535,0 -1.96289,-0.77637 -0.72754,-0.77636 -0.72754,-2.09472 0,-1.33789 0.73243,-2.10449 0.7373,-0.76661 2.0166,-0.76661 0.41504,0 0.81054,0.0879 0.39551,0.083 0.76661,0.25391 z" />
      <path
         id="path5282"
         style="font-size:10.00000095px"
         d="m 350.40332,283.80441 q -0.72265,0 -1.14257,0.56641 -0.41993,0.56152 -0.41993,1.54297 0,0.98144 0.41504,1.54785 0.41993,0.56152 1.14746,0.56152 0.71778,0 1.1377,-0.5664 0.41992,-0.56641 0.41992,-1.54297 0,-0.97168 -0.41992,-1.53809 -0.41992,-0.57129 -1.1377,-0.57129 z m 0,-0.76172 q 1.17188,0 1.84082,0.76172 0.66895,0.76172 0.66895,2.10938 0,1.34277 -0.66895,2.10937 -0.66894,0.76172 -1.84082,0.76172 -1.17675,0 -1.8457,-0.76172 -0.66406,-0.7666 -0.66406,-2.10937 0,-1.34766 0.66406,-2.10938 0.66895,-0.76172 1.8457,-0.76172 z" />
      <path
         id="path5284"
         style="font-size:10.00000095px"
         d="m 358.65528,284.22433 q 0.33691,-0.60546 0.80566,-0.89355 0.46875,-0.28809 1.10352,-0.28809 0.85449,0 1.31836,0.60059 0.46386,0.5957 0.46386,1.69922 l 0,3.30078 -0.90332,0 0,-3.27148 q 0,-0.78614 -0.27832,-1.167 -0.27832,-0.38086 -0.84961,-0.38086 -0.69824,0 -1.10351,0.46387 -0.40528,0.46387 -0.40528,1.26465 l 0,3.09082 -0.90332,0 0,-3.27148 q 0,-0.79102 -0.27832,-1.167 -0.27832,-0.38086 -0.85937,-0.38086 -0.68848,0 -1.09375,0.46875 -0.40527,0.46387 -0.40527,1.25977 l 0,3.09082 -0.90332,0 0,-5.46875 0.90332,0 0,0.84961 q 0.30761,-0.50293 0.7373,-0.74219 0.42969,-0.23926 1.02051,-0.23926 0.5957,0 1.01074,0.30274 0.41992,0.30273 0.62012,0.8789 z" />
      <path
         id="path5286"
         style="font-size:10.00000095px"
         d="m 368.40137,284.22433 q 0.33692,-0.60546 0.80567,-0.89355 0.46875,-0.28809 1.10351,-0.28809 0.85449,0 1.31836,0.60059 0.46387,0.5957 0.46387,1.69922 l 0,3.30078 -0.90332,0 0,-3.27148 q 0,-0.78614 -0.27832,-1.167 -0.27832,-0.38086 -0.84961,-0.38086 -0.69824,0 -1.10352,0.46387 -0.40527,0.46387 -0.40527,1.26465 l 0,3.09082 -0.90332,0 0,-3.27148 q 0,-0.79102 -0.27832,-1.167 -0.27832,-0.38086 -0.85938,-0.38086 -0.68847,0 -1.09375,0.46875 -0.40527,0.46387 -0.40527,1.25977 l 0,3.09082 -0.90332,0 0,-5.46875 0.90332,0 0,0.84961 q 0.30762,-0.50293 0.7373,-0.74219 0.42969,-0.23926 1.02051,-0.23926 0.59571,0 1.01074,0.30274 0.41993,0.30273 0.62012,0.8789 z" />
      <path
         id="path5288"
         style="font-size:10.00000095px"
         d="m 373.79688,286.48508 0,-3.31055 0.89844,0 0,3.27637 q 0,0.77636 0.30273,1.16699 0.30274,0.38574 0.9082,0.38574 0.72754,0 1.14747,-0.46387 0.4248,-0.46386 0.4248,-1.26464 l 0,-3.10059 0.89844,0 0,5.46875 -0.89844,0 0,-0.83984 q -0.32715,0.49804 -0.76172,0.74218 -0.42969,0.23926 -1.00098,0.23926 -0.94238,0 -1.43066,-0.58594 -0.48828,-0.58593 -0.48828,-1.71386 z m 2.26074,-3.44239 0,0 z" />
      <path
         id="path5290"
         style="font-size:10.00000095px"
         d="m 384.78321,285.3425 0,3.30078 -0.89844,0 0,-3.27148 q 0,-0.77637 -0.30273,-1.16211 -0.30274,-0.38575 -0.9082,-0.38575 -0.72754,0 -1.14746,0.46387 -0.41993,0.46387 -0.41993,1.26465 l 0,3.09082 -0.90332,0 0,-5.46875 0.90332,0 0,0.84961 q 0.32227,-0.49317 0.75684,-0.73731 0.43945,-0.24414 1.01074,-0.24414 0.94238,0 1.42578,0.58594 0.4834,0.58106 0.4834,1.71387 z" />
      <path
         id="path5292"
         style="font-size:10.00000095px"
         d="m 386.58497,283.17453 0.89844,0 0,5.46875 -0.89844,0 0,-5.46875 z m 0,-2.12891 0.89844,0 0,1.1377 -0.89844,0 0,-1.1377 z" />
      <path
         id="path5294"
         style="font-size:10.00000095px"
         d="m 393.29395,283.38449 0,0.83984 q -0.38086,-0.20996 -0.7666,-0.3125 -0.38086,-0.10742 -0.77148,-0.10742 -0.87403,0 -1.35742,0.55664 -0.4834,0.55176 -0.4834,1.55274 0,1.00097 0.4834,1.55761 0.48339,0.55176 1.35742,0.55176 0.39062,0 0.77148,-0.10254 0.38574,-0.10742 0.7666,-0.31738 l 0,0.83008 q -0.37597,0.17578 -0.78125,0.26367 -0.40039,0.0879 -0.85449,0.0879 -1.23535,0 -1.96289,-0.77637 -0.72754,-0.77636 -0.72754,-2.09472 0,-1.33789 0.73242,-2.10449 0.73731,-0.76661 2.0166,-0.76661 0.41504,0 0.81055,0.0879 0.39551,0.083 0.7666,0.25391 z" />
      <path
         id="path5296"
         style="font-size:10.00000095px"
         d="m 397.35157,285.89426 q -1.08887,0 -1.50879,0.24902 -0.41992,0.24902 -0.41992,0.84961 0,0.47851 0.3125,0.76172 0.31738,0.27832 0.85937,0.27832 0.74707,0 1.19629,-0.52735 0.45411,-0.53222 0.45411,-1.41113 l 0,-0.20019 -0.89356,0 z m 1.79199,-0.3711 0,3.12012 -0.89843,0 0,-0.83008 q -0.30762,0.49805 -0.76661,0.73731 -0.45898,0.23437 -1.12304,0.23437 -0.83985,0 -1.33789,-0.46875 -0.49317,-0.47363 -0.49317,-1.26465 0,-0.92285 0.61524,-1.3916 0.62011,-0.46875 1.8457,-0.46875 l 1.25977,0 0,-0.0879 q 0,-0.62012 -0.41016,-0.95703 -0.40527,-0.3418 -1.14258,-0.3418 -0.46875,0 -0.91309,0.11231 -0.44433,0.1123 -0.85449,0.33691 l 0,-0.83008 q 0.49317,-0.19043 0.95703,-0.2832 0.46387,-0.0977 0.90332,-0.0977 1.18653,0 1.77247,0.61524 0.58593,0.61523 0.58593,1.86523 z" />
      <path
         id="path5298"
         style="font-size:10.00000095px"
         d="m 401.8877,281.62179 0,1.55274 1.85059,0 0,0.69824 -1.85059,0 0,2.96875 q 0,0.66895 0.18067,0.85938 0.18554,0.19043 0.74707,0.19043 l 0.92285,0 0,0.75195 -0.92285,0 q -1.04004,0 -1.43555,-0.38574 -0.39551,-0.39063 -0.39551,-1.41602 l 0,-2.96875 -0.65918,0 0,-0.69824 0.65918,0 0,-1.55274 0.90332,0 z" />
      <path
         id="path5300"
         style="font-size:10.00000095px"
         d="m 409.60255,285.6843 0,0.43945 -4.13086,0 q 0.0586,0.92773 0.55664,1.41601 0.50293,0.4834 1.39648,0.4834 0.51758,0 1.00098,-0.12695 0.48828,-0.12695 0.9668,-0.38086 l 0,0.84961 q -0.4834,0.20508 -0.99121,0.3125 -0.50782,0.10742 -1.03028,0.10742 -1.30859,0 -2.07519,-0.76172 -0.76172,-0.76172 -0.76172,-2.06054 0,-1.34278 0.72265,-2.12891 0.72754,-0.79102 1.95801,-0.79102 1.10352,0 1.74317,0.71289 0.64453,0.70801 0.64453,1.92872 z m -0.89844,-0.26368 q -0.01,-0.7373 -0.41504,-1.17675 -0.40039,-0.43946 -1.06445,-0.43946 -0.75196,0 -1.20606,0.42481 -0.44922,0.4248 -0.51758,1.19629 l 3.20313,-0.005 z" />
      <path
         id="path5302"
         style="font-size:10.00000095px"
         d="m 414.67579,284.00461 0,-2.95899 0.89844,0 0,7.59766 -0.89844,0 0,-0.82031 q -0.2832,0.48828 -0.71777,0.72754 -0.42969,0.23437 -1.03516,0.23437 -0.99121,0 -1.61621,-0.79101 -0.62012,-0.79102 -0.62012,-2.08008 0,-1.28907 0.62012,-2.08008 0.625,-0.79102 1.61621,-0.79102 0.60547,0 1.03516,0.23926 0.43457,0.23438 0.71777,0.72266 z m -3.06152,1.90918 q 0,0.99121 0.40527,1.55761 0.41016,0.56153 1.12305,0.56153 0.71289,0 1.12304,-0.56153 0.41016,-0.5664 0.41016,-1.55761 0,-0.99121 -0.41016,-1.55274 -0.41015,-0.5664 -1.12304,-0.5664 -0.71289,0 -1.12305,0.5664 -0.40527,0.56153 -0.40527,1.55274 z" />
      <path
         id="path5304"
         style="font-size:10.00000095px"
         d="m 421.49708,281.62179 0,1.55274 1.85058,0 0,0.69824 -1.85058,0 0,2.96875 q 0,0.66895 0.18066,0.85938 0.18555,0.19043 0.74707,0.19043 l 0.92285,0 0,0.75195 -0.92285,0 q -1.04004,0 -1.43554,-0.38574 -0.39551,-0.39063 -0.39551,-1.41602 l 0,-2.96875 -0.65918,0 0,-0.69824 0.65918,0 0,-1.55274 0.90332,0 z" />
      <path
         id="path5306"
         style="font-size:10.00000095px"
         d="m 426.65333,283.80441 q -0.72266,0 -1.14258,0.56641 -0.41992,0.56152 -0.41992,1.54297 0,0.98144 0.41504,1.54785 0.41992,0.56152 1.14746,0.56152 0.71777,0 1.13769,-0.5664 0.41993,-0.56641 0.41993,-1.54297 0,-0.97168 -0.41993,-1.53809 -0.41992,-0.57129 -1.13769,-0.57129 z m 0,-0.76172 q 1.17187,0 1.84082,0.76172 0.66894,0.76172 0.66894,2.10938 0,1.34277 -0.66894,2.10937 -0.66895,0.76172 -1.84082,0.76172 -1.17676,0 -1.84571,-0.76172 -0.66406,-0.7666 -0.66406,-2.10937 0,-1.34766 0.66406,-2.10938 0.66895,-0.76172 1.84571,-0.76172 z" />
      <path
         id="path5308"
         style="font-size:10.00000095px"
         d="m 317.27344,298.34543 q 0,-0.97656 -0.40528,-1.51367 -0.40039,-0.53711 -1.12793,-0.53711 -0.72265,0 -1.12793,0.53711 -0.40039,0.53711 -0.40039,1.51367 0,0.97168 0.40039,1.50879 0.40528,0.53711 1.12793,0.53711 0.72754,0 1.12793,-0.53711 0.40528,-0.53711 0.40528,-1.50879 z m 0.89844,2.11914 q 0,1.39648 -0.62012,2.07519 -0.62012,0.6836 -1.89942,0.6836 -0.47363,0 -0.89355,-0.0732 -0.41992,-0.0684 -0.81543,-0.21485 l 0,-0.87402 q 0.39551,0.21484 0.78125,0.31738 0.38574,0.10254 0.78613,0.10254 0.88379,0 1.32324,-0.46387 0.43946,-0.45898 0.43946,-1.3916 l 0,-0.44433 q -0.27832,0.48339 -0.71289,0.72265 -0.43457,0.23926 -1.04004,0.23926 -1.00586,0 -1.6211,-0.7666 -0.61523,-0.7666 -0.61523,-2.03125 0,-1.26953 0.61523,-2.03613 0.61524,-0.76661 1.6211,-0.76661 0.60547,0 1.04004,0.23926 0.43457,0.23926 0.71289,0.72266 l 0,-0.83008 0.89844,0 0,4.79004 z" />
      <path
         id="path5310"
         style="font-size:10.00000095px"
         d="m 324.56836,297.8425 0,3.30078 -0.89844,0 0,-3.27148 q 0,-0.77637 -0.30273,-1.16211 -0.30274,-0.38575 -0.9082,-0.38575 -0.72754,0 -1.14747,0.46387 -0.41992,0.46387 -0.41992,1.26465 l 0,3.09082 -0.90332,0 0,-7.59766 0.90332,0 0,2.97852 q 0.32227,-0.49317 0.75684,-0.73731 0.43945,-0.24414 1.01074,-0.24414 0.94238,0 1.42578,0.58594 0.4834,0.58106 0.4834,1.71387 z" />
      <path
         id="path5312"
         style="font-size:10.00000095px"
         d="m 328.48926,296.30441 q -0.72266,0 -1.14258,0.56641 -0.41992,0.56152 -0.41992,1.54297 0,0.98144 0.41504,1.54785 0.41992,0.56152 1.14746,0.56152 0.71777,0 1.13769,-0.5664 0.41993,-0.56641 0.41993,-1.54297 0,-0.97168 -0.41993,-1.53809 -0.41992,-0.57129 -1.13769,-0.57129 z m 0,-0.76172 q 1.17187,0 1.84082,0.76172 0.66894,0.76172 0.66894,2.10938 0,1.34277 -0.66894,2.10937 -0.66895,0.76172 -1.84082,0.76172 -1.17676,0 -1.8457,-0.76172 -0.66407,-0.7666 -0.66407,-2.10937 0,-1.34766 0.66407,-2.10938 0.66894,-0.76172 1.8457,-0.76172 z" />
      <path
         id="path5314"
         style="font-size:10.00000095px"
         d="m 335.96973,295.83566 0,0.84961 q -0.38086,-0.19531 -0.79102,-0.29297 -0.41015,-0.0976 -0.84961,-0.0976 -0.66894,0 -1.00586,0.20507 -0.33203,0.20508 -0.33203,0.61524 0,0.3125 0.23926,0.49316 0.23926,0.17578 0.96191,0.33692 l 0.30762,0.0684 q 0.95703,0.20508 1.35742,0.58105 0.40528,0.3711 0.40528,1.04004 0,0.76172 -0.60547,1.20606 -0.60059,0.44433 -1.65527,0.44433 -0.43946,0 -0.91797,-0.0879 -0.47364,-0.083 -1.00098,-0.25391 l 0,-0.92773 q 0.49805,0.25879 0.98145,0.39063 0.48339,0.12695 0.95703,0.12695 0.63476,0 0.97656,-0.21485 0.3418,-0.21972 0.3418,-0.61523 0,-0.36621 -0.24903,-0.56152 -0.24414,-0.19532 -1.0791,-0.37598 l -0.3125,-0.0732 q -0.83496,-0.17578 -1.20605,-0.53711 -0.3711,-0.36621 -0.3711,-1.00098 0,-0.77148 0.54688,-1.1914 0.54687,-0.41993 1.55273,-0.41993 0.49805,0 0.9375,0.0733 0.43946,0.0732 0.81055,0.21972 z" />
      <path
         id="path5316"
         style="font-size:10.00000095px"
         d="m 338.58692,294.12179 0,1.55274 1.85058,0 0,0.69824 -1.85058,0 0,2.96875 q 0,0.66895 0.18066,0.85938 0.18555,0.19043 0.74707,0.19043 l 0.92285,0 0,0.75195 -0.92285,0 q -1.04004,0 -1.43555,-0.38574 -0.3955,-0.39063 -0.3955,-1.41602 l 0,-2.96875 -0.65918,0 0,-0.69824 0.65918,0 0,-1.55274 0.90332,0 z" />
      <path
         id="path5318"
         style="font-size:10.00000095px"
         d="m 341.62403,293.54562 0.89843,0 0,7.59766 -0.89843,0 0,-7.59766 z" />
      <path
         id="path5320"
         style="font-size:10.00000095px"
         d="m 346.88281,298.39426 q -1.08886,0 -1.50878,0.24902 -0.41993,0.24902 -0.41993,0.84961 0,0.47851 0.3125,0.76172 0.31739,0.27832 0.85938,0.27832 0.74707,0 1.19629,-0.52735 0.4541,-0.53222 0.4541,-1.41113 l 0,-0.20019 -0.89356,0 z m 1.792,-0.3711 0,3.12012 -0.89844,0 0,-0.83008 q -0.30762,0.49805 -0.7666,0.73731 -0.45899,0.23437 -1.12305,0.23437 -0.83984,0 -1.33789,-0.46875 -0.49316,-0.47363 -0.49316,-1.26465 0,-0.92285 0.61523,-1.3916 0.62012,-0.46875 1.8457,-0.46875 l 1.25977,0 0,-0.0879 q 0,-0.62012 -0.41016,-0.95703 -0.40527,-0.3418 -1.14258,-0.3418 -0.46875,0 -0.91308,0.11231 -0.44434,0.1123 -0.85449,0.33691 l 0,-0.83008 q 0.49316,-0.19043 0.95703,-0.2832 0.46387,-0.0977 0.90332,-0.0977 1.18652,0 1.77246,0.61524 0.58594,0.61523 0.58594,1.86523 z" />
      <path
         id="path5322"
         style="font-size:10.00000095px"
         d="m 352.80567,301.65109 q -0.38086,0.97657 -0.74219,1.27442 -0.36133,0.29785 -0.9668,0.29785 l -0.71777,0 0,-0.75195 0.52734,0 q 0.3711,0 0.57618,-0.17579 0.20507,-0.17578 0.4541,-0.83007 l 0.16113,-0.41016 -2.21191,-5.38086 0.95214,0 1.70899,4.27734 1.70898,-4.27734 0.95215,0 -2.40234,5.97656 z" />
      <path
         id="path5324"
         style="font-size:10.00000095px"
         d="m 361.12598,298.1843 0,0.43945 -4.13086,0 q 0.0586,0.92773 0.55664,1.41601 0.50293,0.4834 1.39649,0.4834 0.51757,0 1.00097,-0.12695 0.48828,-0.12695 0.9668,-0.38086 l 0,0.84961 q -0.4834,0.20508 -0.99121,0.3125 -0.50781,0.10742 -1.03027,0.10742 -1.3086,0 -2.0752,-0.76172 -0.76172,-0.76172 -0.76172,-2.06054 0,-1.34278 0.72266,-2.12891 0.72754,-0.79102 1.95801,-0.79102 1.10351,0 1.74316,0.71289 0.64453,0.70801 0.64453,1.92872 z m -0.89844,-0.26368 q -0.01,-0.7373 -0.41504,-1.17675 -0.40039,-0.43946 -1.06445,-0.43946 -0.75195,0 -1.20605,0.42481 -0.44922,0.4248 -0.51758,1.19629 l 3.20312,-0.005 z" />
      <path
         id="path5326"
         style="font-size:10.00000095px"
         d="m 365.76954,296.51437 q -0.15137,-0.0879 -0.33204,-0.12695 -0.17578,-0.0439 -0.39062,-0.0439 -0.76172,0 -1.17188,0.49805 -0.40527,0.49317 -0.40527,1.4209 l 0,2.88086 -0.90332,0 0,-5.46875 0.90332,0 0,0.84961 q 0.2832,-0.49805 0.73731,-0.73731 0.4541,-0.24414 1.10351,-0.24414 0.0928,0 0.20508,0.0147 0.1123,0.01 0.24902,0.0342 l 0.005,0.92285 z" />
      <path
         id="path5328"
         style="font-size:10.00000095px"
         d="m 372.02442,296.30441 q -0.72266,0 -1.14258,0.56641 -0.41992,0.56152 -0.41992,1.54297 0,0.98144 0.41504,1.54785 0.41992,0.56152 1.14746,0.56152 0.71777,0 1.13769,-0.5664 0.41993,-0.56641 0.41993,-1.54297 0,-0.97168 -0.41993,-1.53809 -0.41992,-0.57129 -1.13769,-0.57129 z m 0,-0.76172 q 1.17187,0 1.84082,0.76172 0.66894,0.76172 0.66894,2.10938 0,1.34277 -0.66894,2.10937 -0.66895,0.76172 -1.84082,0.76172 -1.17676,0 -1.84571,-0.76172 -0.66406,-0.7666 -0.66406,-2.10937 0,-1.34766 0.66406,-2.10938 0.66895,-0.76172 1.84571,-0.76172 z" />
      <path
         id="path5330"
         style="font-size:10.00000095px"
         d="m 378.78711,293.54562 0,0.74707 -0.85937,0 q -0.4834,0 -0.67383,0.19532 -0.18555,0.19531 -0.18555,0.70312 l 0,0.4834 1.4795,0 0,0.69824 -1.4795,0 0,4.77051 -0.90332,0 0,-4.77051 -0.85937,0 0,-0.69824 0.85937,0 0,-0.38086 q 0,-0.91309 0.42481,-1.32813 0.4248,-0.41992 1.34765,-0.41992 l 0.84961,0 z" />
      <path
         id="path5332"
         style="font-size:10.00000095px"
         d="m 386.21388,297.72531 q 0.31738,0.10742 0.61523,0.45899 0.30273,0.35156 0.60547,0.96679 l 1.00098,1.99219 -1.05958,0 -0.93261,-1.87012 q -0.36133,-0.73242 -0.70313,-0.97168 -0.33691,-0.23925 -0.92285,-0.23925 l -1.07422,0 0,3.08105 -0.98633,0 0,-7.29004 2.22657,0 q 1.25,0 1.86523,0.52246 0.61524,0.52246 0.61524,1.57715 0,0.68848 -0.32227,1.14258 -0.31738,0.4541 -0.92773,0.62988 z m -2.47071,-3.06152 0,2.58789 1.24024,0 q 0.71289,0 1.07422,-0.32715 0.36621,-0.33203 0.36621,-0.97168 0,-0.63965 -0.36621,-0.96191 -0.36133,-0.32715 -1.07422,-0.32715 l -1.24024,0 z" />
      <path
         id="path5334"
         style="font-size:10.00000095px"
         d="m 391.94141,298.39426 q -1.08886,0 -1.50879,0.24902 -0.41992,0.24902 -0.41992,0.84961 0,0.47851 0.3125,0.76172 0.31739,0.27832 0.85938,0.27832 0.74707,0 1.19629,-0.52735 0.4541,-0.53222 0.4541,-1.41113 l 0,-0.20019 -0.89356,0 z m 1.792,-0.3711 0,3.12012 -0.89844,0 0,-0.83008 q -0.30762,0.49805 -0.7666,0.73731 -0.45899,0.23437 -1.12305,0.23437 -0.83984,0 -1.33789,-0.46875 -0.49316,-0.47363 -0.49316,-1.26465 0,-0.92285 0.61523,-1.3916 0.62012,-0.46875 1.8457,-0.46875 l 1.25977,0 0,-0.0879 q 0,-0.62012 -0.41016,-0.95703 -0.40527,-0.3418 -1.14258,-0.3418 -0.46875,0 -0.91308,0.11231 -0.44434,0.1123 -0.85449,0.33691 l 0,-0.83008 q 0.49316,-0.19043 0.95703,-0.2832 0.46386,-0.0977 0.90332,-0.0977 1.18652,0 1.77246,0.61524 0.58594,0.61523 0.58594,1.86523 z" />
      <path
         id="path5336"
         style="font-size:10.00000095px"
         d="m 400.13477,297.8425 0,3.30078 -0.89843,0 0,-3.27148 q 0,-0.77637 -0.30274,-1.16211 -0.30273,-0.38575 -0.9082,-0.38575 -0.72754,0 -1.14746,0.46387 -0.41992,0.46387 -0.41992,1.26465 l 0,3.09082 -0.90332,0 0,-5.46875 0.90332,0 0,0.84961 q 0.32226,-0.49317 0.75683,-0.73731 0.43945,-0.24414 1.01074,-0.24414 0.94239,0 1.42579,0.58594 0.48339,0.58106 0.48339,1.71387 z" />
      <path
         id="path5338"
         style="font-size:10.00000095px"
         d="m 401.90235,293.54562 0.90332,0 0,4.48731 2.68067,-2.3584 1.14746,0 -2.90039,2.55859 3.02246,2.91016 -1.17188,0 -2.77832,-2.6709 0,2.6709 -0.90332,0 0,-7.59766 z" />
      <path
         id="path5340"
         style="font-size:10.00000095px"
         d="m 415.09083,296.74387 -1.4209,0 -0.41016,1.63086 1.43067,0 0.40039,-1.63086 z m -0.73242,-2.77833 -0.50782,2.02637 1.42579,0 0.51269,-2.02637 0.78125,0 -0.50293,2.02637 1.52344,0 0,0.75196 -1.71387,0 -0.40039,1.63086 1.55274,0 0,0.74707 -1.74317,0 -0.50781,2.02148 -0.78125,0 0.50293,-2.02148 -1.43067,0 -0.50293,2.02148 -0.78613,0 0.50781,-2.02148 -1.53808,0 0,-0.74707 1.71875,0 0.41015,-1.63086 -1.57226,0 0,-0.75196 1.76269,0 0.49805,-2.02637 0.79102,0 z" />
      <path
         id="path5342"
         style="font-size:10.00000095px"
         d="m 419.59766,300.3132 1.61133,0 0,-5.56152 -1.75293,0.35156 0,-0.89844 1.74317,-0.35156 0.98632,0 0,6.45996 1.61133,0 0,0.83008 -4.19922,0 0,-0.83008 z" />
    </g>
  </g>
</svg>
